<svg width="282" height="281" viewBox="0 0 282 281" fill="none" xmlns="http://www.w3.org/2000/svg">
<path d="M278.752 246.421V240.8H281.998V254.953H278.752V249.09H272.59V254.953H269.32V240.8H272.59V246.421H278.752Z" fill="white"/>
<path d="M264.276 253.114C262.602 254.529 260.564 255.237 258.162 255.237C255.761 255.237 253.723 254.529 252.049 253.114C250.39 251.671 249.561 249.926 249.561 247.877C249.561 245.815 250.39 244.076 252.049 242.661C253.723 241.232 255.761 240.518 258.162 240.518C260.564 240.518 262.602 241.232 264.276 242.661C265.951 244.076 266.788 245.815 266.788 247.877C266.788 249.939 265.951 251.685 264.276 253.114ZM254.347 251.213C255.358 252.076 256.63 252.507 258.162 252.507C259.695 252.507 260.967 252.076 261.978 251.213C263.004 250.337 263.518 249.225 263.518 247.877C263.518 246.529 263.004 245.417 261.978 244.541C260.951 243.665 259.679 243.227 258.162 243.227C256.646 243.227 255.374 243.665 254.347 244.541C253.32 245.417 252.807 246.529 252.807 247.877C252.807 249.225 253.32 250.337 254.347 251.213Z" fill="white"/>
<path d="M247.006 254.953H243.736V246.32L236.627 254.953H234.139V240.8H237.409V249.454L244.518 240.8H247.006V254.953Z" fill="white"/>
<path d="M229.932 240.8V252.284H231.71V257.662H228.44V254.953H217.539V240.8H220.809V252.284H226.662V240.8H229.932Z" fill="white"/>
<path d="M215.691 254.953H212.137L211.141 252.406H204.53L203.535 254.953H200.004L205.81 240.8H209.862L215.691 254.953ZM207.848 244.015L205.573 249.797H210.122L207.848 244.015Z" fill="white"/>
<path d="M188.951 240.8H195.136C196.716 240.8 198.059 241.259 199.164 242.175C200.254 243.092 200.8 244.217 200.8 245.552C200.8 246.886 200.254 248.011 199.164 248.928C198.059 249.845 196.716 250.303 195.136 250.303H192.221V254.953H188.951V240.8ZM192.221 247.695H195.136C195.831 247.695 196.408 247.493 196.866 247.088C197.324 246.67 197.553 246.158 197.553 245.552C197.553 244.932 197.324 244.419 196.866 244.015C196.408 243.611 195.831 243.408 195.136 243.408H192.221V247.695Z" fill="white"/>
<path d="M176.463 239.507H169.591V237.242H176.463V239.507ZM179.473 254.953H176.203V246.32L169.094 254.953H166.605V240.801H169.876V249.454L176.985 240.801H179.473V254.953Z" fill="white"/>
<path d="M161.559 253.114C159.885 254.529 157.847 255.237 155.446 255.237C153.044 255.237 151.006 254.529 149.332 253.114C147.673 251.671 146.844 249.926 146.844 247.877C146.844 245.815 147.673 244.076 149.332 242.661C151.006 241.232 153.044 240.518 155.446 240.518C157.847 240.518 159.885 241.232 161.559 242.661C163.234 244.076 164.071 245.815 164.071 247.877C164.071 249.939 163.234 251.685 161.559 253.114ZM151.63 251.213C152.642 252.076 153.913 252.507 155.446 252.507C156.978 252.507 158.25 252.076 159.261 251.213C160.288 250.337 160.801 249.225 160.801 247.877C160.801 246.529 160.288 245.417 159.261 244.541C158.234 243.665 156.962 243.227 155.446 243.227C153.929 243.227 152.657 243.665 151.63 244.541C150.604 245.417 150.09 246.529 150.09 247.877C150.09 249.225 150.604 250.337 151.63 251.213Z" fill="white"/>
<path d="M143.043 247.614C144.497 248.328 145.223 249.406 145.223 250.849C145.223 252.048 144.726 253.032 143.73 253.801C142.735 254.569 141.511 254.953 140.057 254.953H133.02V240.8H139.56C140.966 240.8 142.159 241.178 143.138 241.933C144.117 242.687 144.607 243.638 144.607 244.783C144.607 245.956 144.086 246.899 143.043 247.614ZM139.56 243.408H136.29V246.522H139.56C140.065 246.522 140.484 246.374 140.816 246.077C141.163 245.781 141.337 245.41 141.337 244.965C141.337 244.52 141.171 244.15 140.839 243.853C140.508 243.557 140.081 243.408 139.56 243.408ZM136.29 252.345H140.057C140.61 252.345 141.069 252.19 141.432 251.88C141.795 251.556 141.977 251.152 141.977 250.667C141.977 250.195 141.795 249.804 141.432 249.494C141.069 249.171 140.61 249.009 140.057 249.009H136.29V252.345Z" fill="white"/>
<path d="M123.637 255.237C121.157 255.237 119.095 254.529 117.452 253.114C115.825 251.712 115.012 249.966 115.012 247.877C115.012 245.774 115.825 244.029 117.452 242.641C119.095 241.225 121.157 240.518 123.637 240.518C125.138 240.518 126.52 240.821 127.784 241.428C129.064 242.021 130.059 242.829 130.77 243.854L127.95 245.249C127.539 244.615 126.955 244.123 126.197 243.773C125.438 243.409 124.585 243.227 123.637 243.227C122.026 243.227 120.723 243.658 119.727 244.521C118.748 245.397 118.258 246.516 118.258 247.877C118.258 249.225 118.748 250.337 119.727 251.213C120.723 252.076 122.026 252.507 123.637 252.507C124.585 252.507 125.438 252.332 126.197 251.981C126.971 251.617 127.555 251.126 127.95 250.505L130.77 251.901C130.059 252.925 129.064 253.74 127.784 254.347C126.52 254.94 125.138 255.237 123.637 255.237Z" fill="white"/>
<path d="M105.051 247.614C106.504 248.328 107.231 249.406 107.231 250.849C107.231 252.048 106.734 253.032 105.738 253.801C104.743 254.569 103.519 254.953 102.065 254.953H95.0273V240.8H101.568C102.974 240.8 104.166 241.178 105.146 241.933C106.125 242.687 106.615 243.638 106.615 244.783C106.615 245.956 106.094 246.899 105.051 247.614ZM101.568 243.408H98.2975V246.522H101.568C102.073 246.522 102.492 246.374 102.824 246.077C103.171 245.781 103.345 245.41 103.345 244.965C103.345 244.52 103.179 244.15 102.847 243.853C102.516 243.557 102.089 243.408 101.568 243.408ZM98.2975 252.345H102.065C102.618 252.345 103.076 252.19 103.44 251.88C103.803 251.556 103.985 251.152 103.985 250.667C103.985 250.195 103.803 249.804 103.44 249.494C103.076 249.171 102.618 249.009 102.065 249.009H98.2975V252.345Z" fill="white"/>
<path d="M85.547 254.953H82.2769V246.32L75.1678 254.953H72.6797V240.8H75.9498V249.454L83.0588 240.8H85.547V254.953Z" fill="white"/>
<path d="M58.4121 240.8H70.6159V243.469H66.1372V254.953H62.8671V243.469H58.4121V240.8Z" fill="white"/>
<path d="M50.3385 255.237C47.8582 255.237 45.7966 254.529 44.1537 253.114C42.5265 251.712 41.7129 249.966 41.7129 247.877C41.7129 245.774 42.5265 244.029 44.1537 242.641C45.7966 241.225 47.8582 240.518 50.3385 240.518C51.8393 240.518 53.2216 240.821 54.4854 241.428C55.765 242.021 56.7603 242.829 57.4712 243.854L54.6513 245.249C54.2405 244.615 53.656 244.123 52.8977 243.773C52.1394 243.409 51.2864 243.227 50.3385 243.227C48.7271 243.227 47.4238 243.658 46.4285 244.521C45.4491 245.397 44.9593 246.516 44.9593 247.877C44.9593 249.225 45.4491 250.337 46.4285 251.213C47.4238 252.076 48.7271 252.507 50.3385 252.507C51.2864 252.507 52.1394 252.332 52.8977 251.981C53.6718 251.618 54.2563 251.126 54.6513 250.506L57.4712 251.901C56.7603 252.925 55.765 253.74 54.4854 254.347C53.2216 254.94 51.8393 255.237 50.3385 255.237Z" fill="white"/>
<path d="M33.0553 249.11V252.284H40.0458V254.953H29.7852V240.8H39.9273V243.469H33.0553V246.482H39.3349V249.11H33.0553Z" fill="white"/>
<path d="M25.2229 247.614C26.6763 248.328 27.403 249.406 27.403 250.849C27.403 252.048 26.9054 253.032 25.9101 253.801C24.9149 254.569 23.6905 254.953 22.2371 254.953H15.1992V240.8H21.7395C23.1455 240.8 24.3382 241.178 25.3177 241.933C26.2972 242.687 26.7869 243.638 26.7869 244.783C26.7869 245.956 26.2656 246.899 25.2229 247.614ZM21.7395 243.408H18.4694V246.522H21.7395C22.245 246.522 22.6637 246.374 22.9954 246.077C23.343 245.781 23.5168 245.41 23.5168 244.965C23.5168 244.52 23.3509 244.15 23.0191 243.853C22.6874 243.557 22.2608 243.408 21.7395 243.408ZM18.4694 252.345H22.2371C22.7901 252.345 23.2482 252.19 23.6116 251.88C23.9749 251.556 24.1566 251.152 24.1566 250.667C24.1566 250.195 23.9749 249.804 23.6116 249.494C23.2482 249.171 22.7901 249.009 22.2371 249.009H18.4694V252.345Z" fill="white"/>
<path d="M10.637 247.614C12.0904 248.328 12.8171 249.406 12.8171 250.849C12.8171 252.048 12.3195 253.032 11.3242 253.801C10.3289 254.569 9.1046 254.953 7.6512 254.953H0.613281V240.8H7.15357C8.55958 240.8 9.75231 241.178 10.7318 241.933C11.7112 242.687 12.201 243.638 12.201 244.783C12.201 245.956 11.6796 246.899 10.637 247.614ZM7.15357 243.408H3.88343V246.522H7.15357C7.6591 246.522 8.07774 246.374 8.4095 246.077C8.75705 245.781 8.93083 245.41 8.93083 244.965C8.93083 244.52 8.76495 244.15 8.4332 243.853C8.10144 243.557 7.6749 243.408 7.15357 243.408ZM3.88343 252.345H7.6512C8.20413 252.345 8.66226 252.19 9.02561 251.88C9.38896 251.556 9.57064 251.152 9.57064 250.667C9.57064 250.195 9.38896 249.804 9.02561 249.494C8.66226 249.171 8.20413 249.009 7.6512 249.009H3.88343V252.345Z" fill="white"/>
<path d="M279.226 278.475C277.377 280.158 275.128 281 272.478 281C269.828 281 267.579 280.158 265.73 278.475C263.9 276.76 262.984 274.685 262.984 272.248C262.984 269.796 263.9 267.728 265.73 266.045C267.579 264.346 269.828 263.497 272.478 263.497C275.128 263.497 277.377 264.346 279.226 266.045C281.074 267.728 281.998 269.796 281.998 272.248C281.998 274.701 281.074 276.776 279.226 278.475ZM268.267 276.215C269.383 277.241 270.787 277.754 272.478 277.754C274.169 277.754 275.573 277.241 276.689 276.215C277.822 275.174 278.389 273.851 278.389 272.248C278.389 270.646 277.822 269.323 276.689 268.281C275.555 267.24 274.152 266.719 272.478 266.719C270.804 266.719 269.401 267.24 268.267 268.281C267.134 269.323 266.567 270.646 266.567 272.248C266.567 273.851 267.134 275.174 268.267 276.215Z" fill="white"/>
<path d="M261.639 280.664H257.742L254.055 274.821H251.308V280.664H247.699V263.834H255.022C256.713 263.834 258.152 264.379 259.337 265.469C260.523 266.559 261.116 267.873 261.116 269.412C261.116 270.453 260.793 271.423 260.148 272.321C259.503 273.202 258.649 273.868 257.585 274.316L261.639 280.664ZM255.022 266.935H251.308V271.912H255.022C255.702 271.912 256.286 271.672 256.774 271.191C257.263 270.694 257.507 270.101 257.507 269.412C257.507 268.722 257.263 268.137 256.774 267.657C256.286 267.176 255.702 266.935 255.022 266.935Z" fill="white"/>
<path d="M232.014 263.834H238.84C240.583 263.834 242.065 264.379 243.286 265.469C244.489 266.559 245.09 267.897 245.09 269.484C245.09 271.071 244.489 272.409 243.286 273.499C242.065 274.589 240.583 275.134 238.84 275.134H235.623V280.664H232.014V263.834ZM235.623 272.032H238.84C239.607 272.032 240.243 271.792 240.749 271.311C241.255 270.814 241.507 270.205 241.507 269.484C241.507 268.746 241.255 268.137 240.749 267.657C240.243 267.176 239.607 266.935 238.84 266.935H235.623V272.032Z" fill="white"/>
<path d="M228.347 274.893H218.539V271.912H228.347V274.893Z" fill="white"/>
<path d="M211.302 270.518V263.834H214.885V280.664H211.302V273.691H204.502V280.664H200.893V263.834H204.502V270.518H211.302Z" fill="white"/>
<path d="M188.878 271.623H198.058V272.922C198.058 275.326 197.221 277.273 195.547 278.764C193.874 280.255 191.712 281 189.061 281C186.237 281 183.892 280.159 182.026 278.476C180.178 276.776 179.254 274.709 179.254 272.272C179.254 269.82 180.169 267.744 182 266.045C183.848 264.346 186.132 263.497 188.852 263.497C190.543 263.497 192.095 263.85 193.508 264.555C194.92 265.26 196.027 266.214 196.829 267.416L193.743 269.051C193.307 268.362 192.644 267.801 191.755 267.368C190.866 266.935 189.89 266.719 188.826 266.719C187.065 266.719 185.627 267.248 184.511 268.305C183.395 269.331 182.837 270.654 182.837 272.272C182.837 273.859 183.404 275.174 184.537 276.216C185.67 277.241 187.187 277.754 189.088 277.754C190.465 277.754 191.616 277.474 192.54 276.913C193.464 276.352 194.092 275.566 194.423 274.557H188.878V271.623Z" fill="white"/>
<path d="M172.836 280.664V263.834H176.445V280.664H172.836Z" fill="white"/>
<path d="M165.593 270.518V263.834H169.176V280.664H165.593V273.691H158.793V280.664H155.184V263.834H158.793V270.518H165.593Z" fill="white"/>
<path d="M146.345 280.664H142.422L141.323 277.634H134.027L132.928 280.664H129.031L135.439 263.834H139.911L146.345 280.664ZM137.688 267.657L135.177 274.533H140.199L137.688 267.657Z" fill="white"/>
<path d="M116.23 263.834H129.699V267.007H124.756V280.664H121.147V267.007H116.23V263.834Z" fill="white"/>
<path d="M110.325 274.1V263.834H113.934V280.664H111.188L103.342 270.373V280.664H99.7324V263.834H102.479L110.325 274.1Z" fill="white"/>
<path d="M89.2166 273.715V277.49H96.9318V280.664H85.6074V263.834H96.8011V267.007H89.2166V270.59H96.1472V273.715H89.2166Z" fill="white"/>
<path d="M78.3363 274.1V263.834H81.9454V280.664H79.1993L71.3533 270.373V280.664H67.7441V263.834H70.4902L78.3363 274.1Z" fill="white"/>
<path d="M62.169 278.476C60.3208 280.159 58.0716 281 55.4214 281C52.7712 281 50.522 280.159 48.6738 278.476C46.8431 276.76 45.9277 274.685 45.9277 272.248C45.9277 269.796 46.8431 267.728 48.6738 266.045C50.522 264.346 52.7712 263.497 55.4214 263.497C58.0716 263.497 60.3208 264.346 62.169 266.045C64.0172 267.728 64.9412 269.796 64.9412 272.248C64.9412 274.701 64.0172 276.776 62.169 278.476ZM51.2107 276.216C52.3266 277.241 53.7302 277.754 55.4214 277.754C57.1127 277.754 58.5162 277.241 59.6321 276.216C60.7654 275.174 61.3321 273.851 61.3321 272.248C61.3321 270.646 60.7654 269.323 59.6321 268.281C58.4988 267.24 57.0952 266.719 55.4214 266.719C53.7476 266.719 52.344 267.24 51.2107 268.281C50.0774 269.323 49.5107 270.646 49.5107 272.248C49.5107 273.851 50.0774 275.174 51.2107 276.216Z" fill="white"/>
<path d="M31.2148 263.834H38.0409C39.7844 263.834 41.2665 264.379 42.487 265.469C43.69 266.559 44.2915 267.897 44.2915 269.484C44.2915 271.071 43.69 272.409 42.487 273.499C41.2665 274.589 39.7844 275.134 38.0409 275.134H34.824V280.664H31.2148V263.834ZM34.824 272.032H38.0409C38.808 272.032 39.4444 271.792 39.9501 271.311C40.4557 270.814 40.7085 270.205 40.7085 269.484C40.7085 268.746 40.4557 268.137 39.9501 267.657C39.4444 267.176 38.808 266.935 38.0409 266.935H34.824V272.032Z" fill="white"/>
<path d="M23.3037 272.008L28.9267 280.664H24.8206L21.2637 275.182L17.7069 280.664H13.627L19.2238 272.032L13.9146 263.834H17.9946L21.2637 268.883L24.5329 263.834H28.6128L23.3037 272.008Z" fill="white"/>
<path d="M4.45878 273.715V277.49H12.174V280.664H0.849609V263.834H12.0433V267.007H4.45878V270.59H11.3894V273.715H4.45878Z" fill="white"/>
<path d="M263.071 136.458C250.618 150.776 233.267 157.936 211.017 157.936C188.934 157.936 171.5 150.776 158.715 136.458C146.262 121.995 140.035 102.832 140.035 78.9678C140.035 55.1039 146.262 36.0128 158.715 21.6945C171.334 7.23148 188.768 0 211.017 0C233.267 0 250.618 7.23148 263.071 21.6945C275.69 35.8682 282 54.9593 282 78.9678C282 102.832 275.69 121.995 263.071 136.458ZM211.017 33.8433C190.262 33.8433 179.885 48.8848 179.885 78.9678C179.885 109.051 190.262 124.092 211.017 124.092C231.772 124.092 242.15 109.051 242.15 78.9678C242.15 48.8848 231.772 33.8433 211.017 33.8433Z" fill="white"/>
<path d="M118.17 31.24L88.0335 64.6494C99.3243 68.1205 108.29 73.6165 114.932 81.1372C121.74 88.5133 125.144 97.1911 125.144 107.171C125.144 123.08 119 135.518 106.713 144.485C94.4261 153.452 79.3994 157.936 61.6331 157.936C47.5197 157.936 35.0667 155.188 24.274 149.692C13.4814 144.051 5.59449 135.952 0.613281 125.394L34.9836 108.038C39.3007 118.741 48.1838 124.092 61.6331 124.092C71.4295 124.671 78.4032 121.995 82.5542 116.065C86.7052 110.135 86.7052 104.206 82.5542 98.2758C78.4032 92.346 71.4295 89.6703 61.6331 90.2489H53.4141L38.2214 70.5069L69.8521 35.5789H6.09261V3.03717H118.17V31.24Z" fill="white"/>
<path d="M269.745 193.169V173.187H281.751V225.38H269.745V204.652H253.236V225.38H241.23V173.187H253.236V193.169H269.745Z" fill="white"/>
<path d="M232.239 225.38H220.233V197.047L199.973 225.38H190.969V173.187H202.975V201.52L223.235 173.187H232.239V225.38Z" fill="white"/>
<path d="M169.973 195.63V173.187H181.979V225.38H169.973V207.187C167.171 208.281 164.195 208.827 161.043 208.827C155.641 208.827 151.138 207.336 147.537 204.354C143.985 201.272 142.209 197.096 142.209 191.827V173.187H154.215V190.038C154.215 192.324 154.84 194.114 156.091 195.406C157.392 196.699 159.142 197.345 161.343 197.345C164.395 197.345 167.271 196.773 169.973 195.63Z" fill="white"/>
<path d="M134.337 225.38H122.331V197.047L102.071 225.38H93.0664V173.187H105.072V201.52L125.332 173.187H134.337V225.38Z" fill="white"/>
<path d="M48.8027 173.187H68.6876C73.8902 173.187 78.2424 174.927 81.7441 178.406C85.2959 181.935 87.0718 186.161 87.0718 191.082C87.0718 196.003 85.2959 200.228 81.7441 203.757C78.2424 207.237 73.8902 208.977 68.6876 208.977H60.8087V225.38H48.8027V173.187ZM60.8087 197.792H68.6876C70.5385 197.792 72.0643 197.146 73.2649 195.854C74.4655 194.561 75.0658 192.971 75.0658 191.082C75.0658 189.193 74.4655 187.602 73.2649 186.31C72.0643 185.017 70.5385 184.371 68.6876 184.371H60.8087V197.792Z" fill="white"/>
<path d="M0 173.187H39.7698V225.38H27.7638V184.669H12.006V225.38H0V173.187Z" fill="white"/>
</svg>
