<svg width="474" height="75" viewBox="0 0 474 75" fill="none" xmlns="http://www.w3.org/2000/svg">
<path d="M52.5049 57.9994L17.9959 57.9994L18.3417 57.4212L25.2573 45.3885C25.4212 45.106 25.549 44.8023 25.6377 44.4851C25.6798 44.1131 25.6798 43.7371 25.6377 43.365L25.6377 31.9104C25.6798 31.5383 25.6798 31.1623 25.6377 30.7902C25.5566 30.4703 25.4283 30.1655 25.2573 29.8869L18.3417 18.071L17.9959 17.4567L52.5741 17.4567C53.2549 17.4204 53.9103 17.1747 54.4578 16.7504C55.0054 16.3261 55.4207 15.7421 55.6516 15.0718C56.5069 13.3945 56.9356 11.5157 56.8964 9.61554C56.9197 7.53552 56.4694 5.47951 55.5824 3.61725C54.7525 1.81053 53.7152 0.907175 52.5049 0.907175L2.91976 0.907175C2.52722 0.87373 2.13244 0.930529 1.76315 1.07358C1.39386 1.21663 1.05903 1.44246 0.782199 1.73519C0.505363 2.02793 0.293237 2.38047 0.160728 2.76804C0.0282183 3.15562 -0.0214583 3.56881 0.015189 3.97859L0.015189 14.8189C0.0238381 15.5433 0.240691 16.2484 0.637597 16.8424L11.9447 37.6196L0.637597 58.3607C0.249877 58.9595 0.0339327 59.6615 0.015189 60.3842L0.015189 71.2245C-0.0268938 71.6372 0.0187313 72.0544 0.148806 72.4465C0.278881 72.8385 0.490196 73.1957 0.76766 73.4926C1.04512 73.7895 1.38189 74.0186 1.75391 74.1637C2.12593 74.3089 2.52402 74.3663 2.91976 74.3321L52.5049 74.3321C53.7152 74.3321 54.7525 73.4287 55.5824 71.622C56.4308 69.7869 56.857 67.77 56.8272 65.7321C56.8588 63.8328 56.4306 61.956 55.5824 60.2758C55.346 59.6123 54.9284 59.036 54.3812 58.6185C53.8341 58.2009 53.1817 57.9605 52.5049 57.9271" fill="white"/>
<path d="M36.5644 29.634C35.8448 29.1756 35.0212 28.9261 34.1785 28.9113C32.3113 28.9113 31.1357 30.4651 31.1357 32.9222L31.1357 42.3894C31.1357 44.8465 32.3113 46.4365 34.1785 46.4365C35.0244 46.4108 35.8483 46.1487 36.5644 45.6776L44.4137 40.944C45.0376 40.6592 45.576 40.2031 45.9718 39.6241C46.3675 39.0451 46.6058 38.365 46.6613 37.6558C46.6058 36.9467 46.3675 36.2665 45.9718 35.6875C45.576 35.1086 45.0376 34.6524 44.4137 34.3676L36.5644 29.634Z" fill="white"/>
<path d="M112.982 69.8515C113.282 70.3774 113.448 70.9742 113.466 71.5859C113.466 73.3926 112.394 74.296 110.285 74.296H97.5258C96.9534 74.2967 96.3932 74.1226 95.914 73.7952C95.4349 73.4679 95.0577 73.0014 94.8287 72.4531L85.7346 54.2053L75.3612 72.5615C75.1312 73.0782 74.7652 73.5158 74.3059 73.8229C73.8466 74.1301 73.3131 74.2942 72.7678 74.296H61.6682C59.5243 74.296 58.487 73.4288 58.487 71.6943C58.5106 70.9891 58.7135 70.3031 59.0748 69.7069L77.6088 35.8129L60.7346 5.13492C60.4353 4.60893 60.2687 4.01213 60.2505 3.40047C60.2505 1.59376 61.3224 0.6904 63.4317 0.6904L75.6378 0.6904C76.1894 0.68386 76.7316 0.839663 77.2024 1.13999C77.6733 1.44032 78.0537 1.87306 78.3003 2.38871L86.8066 20.1668L95.9006 2.38871C96.1393 1.85877 96.5228 1.41461 97.0029 1.11234C97.4829 0.810064 98.0379 0.663237 98.5977 0.6904L110.043 0.6904C112.152 0.6904 113.224 1.59376 113.224 3.40047C113.193 4.05931 112.99 4.69663 112.637 5.24332L95.1745 34.5844L112.982 69.8515Z" fill="white"/>
<path d="M147.353 14.8189L135.251 14.8189C134.179 14.8189 133.349 16.0113 133.349 17.4567V28.9113C133.349 30.3566 134.179 31.5129 135.251 31.5129L147.353 31.5129C148.39 31.5129 149.22 30.3566 149.22 28.9113V17.4567C149.22 16.0113 148.39 14.8189 147.353 14.8189ZM162.533 11.7836V32.8499C162.585 35.8357 161.546 38.73 159.628 40.944C158.732 42.0315 157.615 42.8971 156.36 43.4783C155.104 44.0595 153.74 44.3417 152.367 44.3045H134.317V70.3212C134.317 71.5497 133.453 72.5976 131.724 73.4649C129.917 74.3485 127.943 74.7932 125.949 74.7657C124.197 74.804 122.467 74.355 120.935 73.4649C120.324 73.2117 119.794 72.7815 119.408 72.2246C119.022 71.6678 118.796 71.0075 118.757 70.3212L118.757 6.18279C118.756 4.79164 119.27 3.45406 120.192 2.45037C121.114 1.44667 122.371 0.854796 123.702 0.798778L151.606 0.798778C153.017 0.766002 154.419 1.0343 155.727 1.58726C157.035 2.14022 158.221 2.96622 159.213 4.01473C160.252 4.99795 161.084 6.19648 161.656 7.53402C162.227 8.87156 162.526 10.3188 162.533 11.7836Z" fill="white"/>
<path d="M187.291 57.8188H194.207C194.555 57.8188 194.899 57.7466 195.22 57.6063C195.541 57.466 195.833 57.2605 196.077 57.0017C196.322 56.7428 196.514 56.4358 196.645 56.0984C196.775 55.7611 196.839 55.4001 196.835 55.0364V19.95C196.839 19.5863 196.775 19.2253 196.645 18.888C196.514 18.5506 196.322 18.2436 196.077 17.9847C195.833 17.7259 195.541 17.5204 195.22 17.3801C194.899 17.2398 194.555 17.1676 194.207 17.1677L187.291 17.1677C186.943 17.1676 186.598 17.2398 186.277 17.3801C185.956 17.5204 185.665 17.7259 185.42 17.9847C185.176 18.2436 184.983 18.5506 184.853 18.888C184.723 19.2253 184.658 19.5863 184.663 19.95V54.8919C184.639 55.2674 184.69 55.644 184.811 55.9984C184.933 56.3527 185.122 56.6772 185.369 56.9516C185.615 57.2261 185.913 57.4447 186.244 57.5938C186.574 57.743 186.931 57.8196 187.291 57.8188ZM178.992 74.4405C177.657 74.4867 176.327 74.2405 175.089 73.7178C173.85 73.195 172.73 72.4073 171.8 71.4053C170.852 70.3907 170.112 69.1851 169.624 67.8618C169.137 66.5386 168.912 65.1255 168.964 63.7086V11.7837C168.943 10.3345 169.208 8.89632 169.744 7.5594C170.279 6.22248 171.073 5.01569 172.077 4.01478C173.085 2.9482 174.293 2.11171 175.627 1.55817C176.96 1.00463 178.388 0.746068 179.822 0.798829L201.987 0.798829C203.402 0.773662 204.807 1.04531 206.119 1.5977C207.432 2.15009 208.625 2.97199 209.628 4.01478C210.632 5.01569 211.426 6.22248 211.961 7.5594C212.497 8.89632 212.762 10.3345 212.741 11.7837V63.5641C212.793 64.981 212.568 66.3941 212.081 67.7173C211.593 69.0405 210.853 70.2462 209.905 71.2607C208.975 72.2628 207.855 73.0505 206.616 73.5732C205.378 74.0959 204.048 74.3421 202.713 74.296L178.992 74.4405Z" fill="white"/>
<path d="M233.868 34.9819V70.5019C233.868 71.7305 233.072 72.7784 231.447 73.6095C229.771 74.4316 227.94 74.8514 226.088 74.838C224.423 74.8593 222.781 74.4365 221.316 73.6095C220.735 73.3378 220.237 72.9039 219.877 72.3556C219.517 71.8073 219.309 71.1659 219.276 70.5019V3.79797C219.276 2.9896 219.581 2.2138 220.124 1.63882C220.668 1.06385 221.407 0.73606 222.18 0.72655L232.208 0.72655C232.777 0.695092 233.343 0.843777 233.83 1.15319C234.317 1.46261 234.704 1.91838 234.94 2.461L252.609 37.8365V4.41225C252.609 3.25595 253.37 2.24419 254.926 1.4131C256.49 0.497933 258.251 0.0130194 260.043 0.00386346C261.766 -0.045456 263.471 0.378155 264.988 1.23243C265.583 1.48565 266.099 1.90717 266.478 2.4497C266.857 2.99222 267.083 3.63428 267.132 4.30385V71.1162C267.132 71.5195 267.056 71.9189 266.908 72.2916C266.761 72.6642 266.544 73.0028 266.271 73.288C265.998 73.5732 265.674 73.7995 265.318 73.9538C264.961 74.1082 264.579 74.1876 264.193 74.1876H254.753C254.187 74.2271 253.622 74.0859 253.134 73.7826C252.646 73.4793 252.258 73.0283 252.021 72.4893L233.868 34.9819Z" fill="white"/>
<path d="M273.737 3.79796C273.737 2.9896 274.041 2.2138 274.585 1.63882C275.129 1.06385 275.868 0.736059 276.641 0.726549L310.009 0.726549C311.185 0.726549 312.153 1.55764 312.914 3.25595C313.694 5.09705 314.072 7.09678 314.02 9.10971C314.066 11.0638 313.688 13.0034 312.914 14.7828C312.153 16.4088 311.185 17.2399 310.009 17.2399L289.262 17.2399V29.9592L310.009 29.9592C311.116 29.9592 312.049 30.7903 312.845 32.4886C313.657 34.2698 314.06 36.225 314.02 38.1978C314.051 39.9837 313.684 41.7527 312.948 43.365C312.719 43.9953 312.325 44.546 311.812 44.9547C311.299 45.3633 310.686 45.6138 310.044 45.6776H289.297V57.1322H310.044C311.15 57.1322 312.049 58.0717 312.81 59.9507C313.558 61.9539 313.934 64.0878 313.916 66.238C313.916 71.5136 312.568 74.1153 310.044 74.1153L276.641 74.1153C275.862 74.1153 275.114 73.7917 274.563 73.2157C274.012 72.6397 273.702 71.8585 273.702 71.0439L273.737 3.79796Z" fill="white"/>
<path d="M335.217 35.018V70.538C335.217 71.7666 334.421 72.7783 332.796 73.6094C331.125 74.4473 329.29 74.8679 327.436 74.838C325.769 74.8865 324.12 74.4619 322.665 73.6094C322.082 73.3457 321.581 72.9196 321.215 72.3779C320.849 71.8361 320.633 71.1996 320.59 70.538V3.83409C320.59 3.0195 320.9 2.23827 321.451 1.66227C322.002 1.08627 322.75 0.76267 323.529 0.76267L333.557 0.76267C334.122 0.728165 334.685 0.871508 335.172 1.17421C335.659 1.47692 336.048 1.92511 336.288 2.46098L353.993 37.8726V4.44837C353.993 3.29207 354.753 2.28031 356.275 1.41309C357.856 0.510639 359.625 0.0267907 361.427 0.00385015C363.142 -0.033145 364.835 0.403093 366.337 1.26855C366.932 1.52177 367.448 1.9433 367.827 2.48582C368.205 3.02834 368.432 3.67041 368.481 4.33997V71.1523C368.481 71.9669 368.171 72.7481 367.62 73.3241C367.069 73.9001 366.321 74.2237 365.542 74.2237H356.171C355.607 74.2237 355.054 74.062 354.573 73.7562C354.091 73.4503 353.699 73.0121 353.439 72.4893L335.217 35.018Z" fill="white"/>
<path d="M405.514 70.538C405.514 71.7665 404.753 72.7783 403.163 73.6094C401.465 74.458 399.615 74.9257 397.734 74.9825C395.778 75.0926 393.827 74.6823 392.063 73.7901C390.403 72.9228 389.574 71.8388 389.574 70.538V17.0231L376.918 17.0231C375.742 17.0231 374.774 16.2281 373.979 14.6382C373.163 12.8781 372.715 10.9564 372.665 9.00126C372.563 7.02679 372.956 5.05869 373.806 3.29204C374.636 1.59372 375.673 0.762635 376.918 0.762635L418.412 0.762635C419.587 0.762635 420.59 1.62986 421.386 3.40044C422.238 5.22251 422.676 7.22596 422.665 9.2542C422.699 11.1466 422.258 13.0153 421.386 14.6743C421.156 15.3218 420.754 15.8871 420.227 16.3033C419.7 16.7195 419.07 16.9693 418.412 17.0231L405.652 17.0231L405.514 70.538Z" fill="white"/>
<path d="M441.199 42.1726H449.532L445.072 20.8173L441.199 42.1726ZM453.924 58.4692H437.43L434.353 71.6582C434.258 72.3989 433.899 73.0748 433.347 73.5506C432.796 74.0264 432.093 74.2668 431.379 74.2238H420.521C420.076 74.2465 419.631 74.1603 419.223 73.9721C418.815 73.784 418.454 73.499 418.17 73.1397C417.902 72.7747 417.722 72.3482 417.644 71.8957C417.566 71.4433 417.592 70.9778 417.72 70.5381L434.214 4.08708C434.456 3.00305 435.701 2.06356 437.949 1.23247C440.403 0.390324 442.973 -0.0247258 445.556 0.00390374C451.78 0.00390374 455.238 1.37701 455.929 4.08708L473.979 70.5381C474.007 70.8264 474.007 71.1169 473.979 71.4053C473.979 73.2843 472.976 74.2238 471.005 74.2238H460.044C458.626 74.2238 457.693 73.3927 457.209 71.6582L453.924 58.4692Z" fill="white"/>
</svg>
