<svg width="40" height="40" viewBox="0 0 40 40" fill="none" xmlns="http://www.w3.org/2000/svg">
<path d="M36.4103 20C36.4103 10.9369 29.0631 3.58974 20 3.58974C10.9369 3.58974 3.58974 10.9369 3.58974 20C3.58974 29.0631 10.9369 36.4103 20 36.4103V40C8.95431 40 0 31.0457 0 20C0 8.95431 8.95431 0 20 0C31.0457 0 40 8.95431 40 20C40 31.0457 31.0457 40 20 40V36.4103C29.0631 36.4103 36.4103 29.0631 36.4103 20Z" fill="#FF021B"/>
<path d="M18.7225 19.1863C18.7225 17.7655 18.3869 17.0886 18.0523 16.6109C17.8447 16.3146 17.655 16.1124 17.3641 15.7567C17.0992 15.4326 16.7946 15.0275 16.5713 14.5004C16.1956 13.6137 16.0179 12.649 15.9641 11.8907C15.9372 11.5113 15.9383 11.1436 15.9753 10.8331C15.9931 10.6831 16.0246 10.4999 16.0875 10.3197C16.119 10.2295 16.1707 10.1035 16.2572 9.97225C16.3382 9.84919 16.5018 9.64203 16.7875 9.50152C16.9844 9.40472 17.1907 9.36496 17.2662 9.35034C17.3832 9.32769 17.5114 9.30944 17.6376 9.29478C17.8919 9.26522 18.1938 9.24354 18.4917 9.23492C18.7848 9.22645 19.1085 9.22949 19.3966 9.25782C19.5382 9.27175 19.7059 9.29509 19.8714 9.33865C19.9795 9.36712 20.2761 9.44877 20.5392 9.68157L20.5913 9.72997L20.6548 9.79674C20.7956 9.9546 20.885 10.1219 20.9217 10.1907C20.9831 10.3059 21.0424 10.4338 21.0955 10.5529C21.194 10.7741 21.3292 11.1003 21.4336 11.3415C21.47 11.4257 21.5058 11.5068 21.5407 11.584C22.2021 11.1833 23.1627 10.7966 24.5441 10.9476C25.9736 11.1038 27.388 11.7177 28.368 13.3623C29.2803 14.8932 29.7436 17.204 29.7436 20.5856C29.7436 24.3356 28.002 26.7153 25.926 28.0943C23.9274 29.4219 21.6435 29.8116 20.3855 29.7342C18.9228 29.6443 17.8268 29.3612 16.9693 28.9306C16.0969 28.4925 15.5526 27.9417 15.1511 27.4538C14.9833 27.2498 14.7761 26.9729 14.6751 26.845C14.5429 26.6777 14.4516 26.5773 14.3702 26.5069C14.2683 26.4188 14.1354 26.324 13.7344 26.324C13.2057 26.324 12.5006 26.467 11.7553 26.6228C11.4194 26.693 11.0495 26.7707 10.7472 26.8104C10.5987 26.83 10.4066 26.8489 10.2123 26.8393C10.0998 26.8337 9.61222 26.813 9.22575 26.4329C8.97104 26.1824 8.87357 25.8905 8.83551 25.7629C8.7874 25.6015 8.76187 25.4407 8.74679 25.3072C8.71628 25.0368 8.71352 24.739 8.72231 24.4713C8.73131 24.1976 8.75361 23.9199 8.78339 23.6787C8.80941 23.468 8.85159 23.1925 8.92543 22.9743L8.96009 22.8825C9.04652 22.6747 9.168 22.5143 9.2432 22.422C9.34711 22.2944 9.46754 22.1721 9.59176 22.059C9.84132 21.8319 10.1591 21.5951 10.5216 21.3794C11.2316 20.9568 12.2352 20.5431 13.3483 20.5431C14.4089 20.5431 15.3102 20.8647 15.9566 21.1255C16.3229 21.2733 16.5205 21.3642 16.7533 21.4507C16.9033 21.5064 16.9714 21.5214 16.9855 21.5249C17.2555 21.5227 17.6755 21.4695 18.0099 21.2268C18.2812 21.0298 18.7225 20.5455 18.7225 19.1863ZM21.2045 19.1863C21.2045 21.1414 20.5226 22.4371 19.4833 23.1915C18.5146 23.8947 17.448 23.9672 16.9681 23.9672C16.5415 23.9672 16.144 23.8345 15.8761 23.735C15.6137 23.6374 15.2571 23.4826 15.0149 23.3849C14.4443 23.1547 13.9102 22.985 13.3483 22.985C12.8388 22.985 12.2819 23.1854 11.8062 23.4686C11.5758 23.6057 11.3944 23.7448 11.2773 23.8513C11.2718 23.8563 11.2668 23.8615 11.2618 23.8661C11.257 23.8981 11.2521 23.9338 11.2473 23.9732C11.2372 24.0545 11.2283 24.1443 11.2208 24.2379C11.2271 24.2366 11.2335 24.2354 11.2397 24.2341C11.9045 24.0952 12.8902 23.8821 13.7344 23.8821C14.7063 23.8821 15.4302 24.1726 16.0087 24.6728C16.2675 24.8966 16.4725 25.141 16.6348 25.3465C16.8283 25.5914 16.9142 25.7155 17.0803 25.9174C17.3468 26.2414 17.6344 26.5232 18.0976 26.7558C18.5758 26.996 19.3193 27.2221 20.5401 27.2971C21.2792 27.3426 23.0152 27.0814 24.5371 26.0705C25.9817 25.1109 27.2615 23.4643 27.2615 20.5856C27.2615 17.3385 26.8005 15.5598 26.2268 14.597C25.7208 13.748 25.0875 13.464 24.2702 13.3747C23.5114 13.2917 23.0854 13.5035 22.7599 13.7147C22.6641 13.7769 22.5782 13.8386 22.4725 13.9141C22.3822 13.9785 22.2446 14.0772 22.1026 14.1592C21.9677 14.237 21.7169 14.368 21.3934 14.4046C21.0091 14.448 20.628 14.3479 20.3121 14.1149C19.9473 13.8458 19.7078 13.4343 19.5788 13.1991C19.4205 12.9104 19.2735 12.5837 19.1498 12.2978C19.041 12.0463 18.9601 11.8531 18.8827 11.6737C18.7864 11.6719 18.6791 11.6725 18.5647 11.6758C18.522 11.6771 18.4795 11.679 18.4374 11.6808C18.4383 11.694 18.4391 11.7072 18.4401 11.7207C18.4799 12.282 18.614 12.9746 18.8623 13.5609C18.9511 13.7703 19.0836 13.9636 19.2984 14.2265C19.4873 14.4576 19.82 14.831 20.0961 15.2251C20.7288 16.1283 21.2045 17.2928 21.2045 19.1863Z" fill="#FF021B"/>
<path d="M23.3616 15.3355C23.7973 14.815 24.5851 14.7443 24.9828 15.2934C25.6285 16.1848 26.2068 17.5222 26.1149 19.1751C26.0775 19.8485 25.3932 20.2546 24.7267 20.0972C24.0601 19.9398 23.6748 19.2733 23.6325 18.6003C23.5997 18.0784 23.4622 17.6284 23.29 17.2633C23.0015 16.6516 22.9258 15.856 23.3616 15.3355Z" fill="#FF021B"/>
</svg>
