<svg width="40" height="40" viewBox="0 0 40 40" fill="none" xmlns="http://www.w3.org/2000/svg">
<path d="M36.4103 20C36.4103 10.9369 29.0631 3.58974 20 3.58974C10.9369 3.58974 3.58974 10.9369 3.58974 20C3.58974 29.0631 10.9369 36.4103 20 36.4103V40C8.95431 40 0 31.0457 0 20C0 8.95431 8.95431 0 20 0C31.0457 0 40 8.95431 40 20C40 31.0457 31.0457 40 20 40V36.4103C29.0631 36.4103 36.4103 29.0631 36.4103 20Z" fill="#FF021B"/>
<path d="M28.2484 26.5862L33.9246 32.2624L31.7489 34.4381L26.0727 28.7619L28.2484 26.5862Z" fill="#FF021B"/>
<path d="M7.81674 6.15385L17.6293 15.9664L15.4536 18.1421L5.64103 8.32956L7.81674 6.15385Z" fill="#FF021B"/>
<path d="M22.8207 7.94872C23.3872 7.94872 23.8464 8.40791 23.8464 8.97436V16.7869L30.1555 26.1242C30.4305 26.5313 30.3783 27.0764 30.0308 27.4238L28.2674 29.1868C28.075 29.3791 27.8142 29.4872 27.5422 29.4872H11.4326C11.1606 29.4872 10.8998 29.3791 10.7075 29.1868L8.93838 27.4181C8.58101 27.0608 8.53716 26.4964 8.83505 26.0882L15.6413 16.7613V8.97436C15.6413 8.40791 16.1005 7.94872 16.6669 7.94872H22.8207ZM18.2054 17.5977L11.6824 26.536L12.0695 26.9231H26.9053L27.3199 26.5079L21.2823 17.5721V10.5128H18.2054V17.5977Z" fill="#FF021B"/>
</svg>
