<svg width="40" height="40" viewBox="0 0 40 40" fill="none" xmlns="http://www.w3.org/2000/svg">
<path d="M36.4103 20C36.4103 10.9369 29.0631 3.58974 20 3.58974C10.9369 3.58974 3.58974 10.9369 3.58974 20C3.58974 29.0631 10.9369 36.4103 20 36.4103V40C8.95431 40 0 31.0457 0 20C0 8.95431 8.95431 0 20 0C31.0457 0 40 8.95431 40 20C40 31.0457 31.0457 40 20 40V36.4103C29.0631 36.4103 36.4103 29.0631 36.4103 20Z" fill="#FF021B"/>
<path d="M26.5485 24.8862L33.9247 32.2624L31.7489 34.4381L24.3728 27.0619L26.5485 24.8862Z" fill="#FF021B"/>
<path d="M7.81651 6.15385L14.3986 12.736L12.2229 14.9117L5.64079 8.32956L7.81651 6.15385Z" fill="#FF021B"/>
<path d="M12.5641 23.6323L18.4615 27.0368V20.5599L12.5641 17.7003V23.6323ZM21.0256 20.5599V27.0368L26.9231 23.6323V17.7003L21.0256 20.5599ZM14.0169 15.5554L19.7436 18.3318L25.4698 15.5554L19.7436 12.2496L14.0169 15.5554ZM29.4872 24.5205C29.4872 24.887 29.2917 25.2255 28.9744 25.4088L20.2564 30.4421C19.9391 30.6253 19.5481 30.6253 19.2308 30.4421L10.5128 25.4088C10.1955 25.2255 10 24.887 10 24.5205V15.5065C10 15.1401 10.1955 14.8015 10.5128 14.6183L19.2308 9.58494C19.5481 9.40173 19.9391 9.40173 20.2564 9.58494L28.9744 14.6183C29.2917 14.8015 29.4872 15.1401 29.4872 15.5065V24.5205Z" fill="#FF021B"/>
</svg>
