<svg width="40" height="40" viewBox="0 0 40 40" fill="none" xmlns="http://www.w3.org/2000/svg">
<path d="M36.4103 20C36.4103 10.9369 29.0631 3.58974 20 3.58974C10.9369 3.58974 3.58974 10.9369 3.58974 20C3.58974 29.0631 10.9369 36.4103 20 36.4103V40C8.95431 40 0 31.0457 0 20C0 8.95431 8.95431 0 20 0C31.0457 0 40 8.95431 40 20C40 31.0457 31.0457 40 20 40V36.4103C29.0631 36.4103 36.4103 29.0631 36.4103 20Z" fill="#FF021B"/>
<path d="M22.8315 17.4359L24.6202 20.534L22.5022 21.7568L20.7135 18.6587L22.8315 17.4359Z" fill="#FF021B"/>
<path d="M16.6607 17.4359L14.872 20.534L16.99 21.7568L18.7787 18.6587L16.6607 17.4359Z" fill="#FF021B"/>
<path d="M21.5264 23.0769H17.9491V25.5226H21.5264V23.0769Z" fill="#FF021B"/>
<path d="M22.5641 14.359C22.5641 12.9429 21.4161 11.7949 20 11.7949C18.5839 11.7949 17.4359 12.9429 17.4359 14.359C17.4359 15.7751 18.5839 16.9231 20 16.9231V19.4872C17.1678 19.4872 14.8718 17.1912 14.8718 14.359C14.8718 11.5267 17.1678 9.23077 20 9.23077C22.8322 9.23077 25.1282 11.5267 25.1282 14.359C25.1282 17.1912 22.8322 19.4872 20 19.4872V16.9231C21.4161 16.9231 22.5641 15.7751 22.5641 14.359Z" fill="#FF021B"/>
<path d="M28.718 24.1026C28.718 22.6865 27.57 21.5385 26.1538 21.5385C24.7377 21.5385 23.5897 22.6865 23.5897 24.1026C23.5897 25.5187 24.7377 26.6667 26.1538 26.6667V29.2308C23.3216 29.2308 21.0256 26.9348 21.0256 24.1026C21.0256 21.2703 23.3216 18.9744 26.1538 18.9744C28.9861 18.9744 31.2821 21.2703 31.2821 24.1026C31.2821 26.9348 28.9861 29.2308 26.1538 29.2308V26.6667C27.57 26.6667 28.718 25.5187 28.718 24.1026Z" fill="#FF021B"/>
<path d="M15.8974 24.1026C15.8974 22.6865 14.7494 21.5385 13.3333 21.5385C11.9172 21.5385 10.7692 22.6865 10.7692 24.1026C10.7692 25.5187 11.9172 26.6667 13.3333 26.6667V29.2308C10.5011 29.2308 8.20513 26.9348 8.20513 24.1026C8.20513 21.2703 10.5011 18.9744 13.3333 18.9744C16.1656 18.9744 18.4615 21.2703 18.4615 24.1026C18.4615 26.9348 16.1656 29.2308 13.3333 29.2308V26.6667C14.7494 26.6667 15.8974 25.5187 15.8974 24.1026Z" fill="#FF021B"/>
</svg>
