<svg xmlns="http://www.w3.org/2000/svg" xmlns:xlink="http://www.w3.org/1999/xlink"><defs/><symbol id="arrow-right" viewBox="0 0 40 40">
<path d="M20.4889 10.4884C21.1398 9.83753 22.1948 9.83753 22.8457 10.4884L31.179 18.8217C31.8299 19.4726 31.8299 20.5276 31.179 21.1785L22.8457 29.5118C22.1948 30.1627 21.1398 30.1627 20.4889 29.5118C19.8381 28.861 19.8381 27.8059 20.4889 27.1551L25.9772 21.6668H10.0007C9.08018 21.6668 8.33398 20.9206 8.33398 20.0001C8.33398 19.0796 9.08018 18.3335 10.0007 18.3335H25.9772L20.4889 12.8452C19.8381 12.1943 19.8381 11.1393 20.4889 10.4884Z"/>
</symbol><symbol id="attention" viewBox="0 0 24 24">
<path d="M10.762 3.38583C11.549 3.0292 12.4516 3.0292 13.2386 3.38583C13.7967 3.63876 14.1896 4.10241 14.5208 4.58798C14.8563 5.07996 15.2251 5.74526 15.6722 6.54989L20.2337 14.7599C20.6586 15.5247 21.0117 16.1588 21.2425 16.6817C21.4715 17.2008 21.6502 17.7577 21.5813 18.3477C21.4835 19.1853 21.0374 19.9433 20.3528 20.4356C19.8705 20.7825 19.2967 20.8965 18.7317 20.9483C18.1625 21.0005 17.4367 21.0001 16.5618 21.0001H7.43877C6.56383 21.0001 5.83805 21.0005 5.26884 20.9483C4.70386 20.8965 4.13011 20.7825 3.64775 20.4356C2.96317 19.9433 2.51706 19.1853 2.41923 18.3477C2.35041 17.7577 2.52903 17.2008 2.7581 16.6817C2.9889 16.1588 3.34199 15.5247 3.76689 14.7599L8.32841 6.54989C8.77543 5.74526 9.14423 5.07996 9.47978 4.58798C9.81099 4.10242 10.2039 3.63877 10.762 3.38583ZM12.4134 5.20712C12.151 5.08824 11.8495 5.08824 11.5872 5.20712C11.5434 5.22704 11.4075 5.3113 11.1321 5.71493C10.8606 6.11304 10.5436 6.68149 10.0774 7.5206L5.51591 15.7315C5.07191 16.5307 4.77315 17.0702 4.58818 17.4893C4.40157 17.9122 4.40072 18.0665 4.40654 18.1163C4.43923 18.3954 4.5876 18.6476 4.81572 18.8116C4.85641 18.8409 4.9915 18.9149 5.45146 18.9571C5.90765 18.999 6.52451 19.0001 7.43877 19.0001H16.5618C17.4761 19.0001 18.0929 18.999 18.5491 18.9571C19.0091 18.9149 19.1442 18.8409 19.1849 18.8116C19.413 18.6476 19.5624 18.3954 19.595 18.1163C19.6008 18.0665 19.599 17.9122 19.4124 17.4893C19.2274 17.0702 18.9287 16.5307 18.4847 15.7315L13.9231 7.5206C13.457 6.6815 13.14 6.11304 12.8685 5.71493C12.593 5.3112 12.4571 5.227 12.4134 5.20712ZM12.0101 16.0001C12.5623 16.0001 13.0101 16.4478 13.0101 17.0001C13.01 17.5523 12.5623 18.0001 12.0101 18.0001H12.0003C11.448 18.0001 11.0003 17.5523 11.0003 17.0001C11.0003 16.4478 11.448 16.0001 12.0003 16.0001H12.0101ZM11.0003 14.0001V10.0001C11.0003 9.44781 11.448 9.0001 12.0003 9.00009C12.5526 9.00009 13.0003 9.4478 13.0003 10.0001V14.0001C13.0002 14.5523 12.5525 15.0001 12.0003 15.0001C11.448 15.0001 11.0003 14.5523 11.0003 14.0001Z"/>
</symbol><symbol id="chevron-down" viewBox="0 0 40 40">
<path d="M20.0005 26.6667C20.4426 26.6667 20.8663 26.491 21.1789 26.1784L31.1789 16.1784C31.8298 15.5275 31.8298 14.4725 31.1789 13.8216C30.528 13.1708 29.473 13.1708 28.8221 13.8216L20.0005 22.6432L11.1789 13.8216C10.528 13.1708 9.47301 13.1708 8.82214 13.8216C8.17127 14.4725 8.17127 15.5275 8.82214 16.1784L18.8221 26.1784L18.9442 26.2891C19.2408 26.5321 19.6137 26.6667 20.0005 26.6667Z"/>
</symbol><symbol id="clock-second" viewBox="0 0 40 40">
<path d="M34.6286 21.862C34.6282 13.6696 28.0625 7.05892 19.9997 7.05892C11.9369 7.05892 5.37123 13.6696 5.37082 21.862C5.37082 30.0547 11.9367 36.6667 19.9997 36.6667C28.0628 36.6667 34.6286 30.0547 34.6286 21.862ZM4.55539 2.16146C5.20268 1.50724 6.25781 1.50137 6.91216 2.14844C7.56643 2.79579 7.57243 3.85087 6.92518 4.50521L2.85129 8.62305C2.204 9.27726 1.14887 9.28313 0.494515 8.63607C-0.159698 7.98878 -0.16557 6.93365 0.481494 6.2793L4.55539 2.16146ZM33.0873 2.14844C33.7416 1.50137 34.7968 1.50724 35.4441 2.16146L39.518 6.2793C40.165 6.93365 40.1591 7.98878 39.5049 8.63607C38.8506 9.28313 37.7955 9.27726 37.1482 8.62305L33.0743 4.50521C32.427 3.85087 32.433 2.79579 33.0873 2.14844ZM37.962 21.862C37.962 31.8621 29.9371 40 19.9997 40C10.0624 40 2.03748 31.8621 2.03748 21.862C2.03789 11.8622 10.0626 3.72558 19.9997 3.72558C29.9368 3.72558 37.9616 11.8622 37.962 21.862Z"/>
<path d="M19.0732 26.6667V20.72H20.9932V21.4133C21.3665 20.8533 21.9221 20.5733 22.6599 20.5733C23.1132 20.5733 23.4865 20.6622 23.7799 20.84C24.091 21.0178 24.331 21.2933 24.4999 21.6667C24.6865 21.3556 24.9399 21.1022 25.2599 20.9067C25.6243 20.6844 26.0465 20.5733 26.5265 20.5733C27.2465 20.5733 27.8021 20.76 28.1932 21.1333C28.6021 21.5244 28.8065 22.1156 28.8065 22.9067V26.6667H26.8865V23.6533C26.8865 23.0933 26.8021 22.7067 26.6332 22.4933C26.4643 22.28 26.2332 22.1733 25.9399 22.1733C25.6199 22.1733 25.371 22.2933 25.1932 22.5333C24.9977 22.7822 24.8999 23.1733 24.8999 23.7067V26.6667H22.9799V23.5733C22.9799 23.0044 22.8777 22.6178 22.6732 22.4133C22.5132 22.2533 22.2999 22.1733 22.0332 22.1733C21.7577 22.1733 21.5354 22.2533 21.3665 22.4133C21.1177 22.6533 20.9932 23.0578 20.9932 23.6267V26.6667H19.0732Z"/>
<path d="M13.8497 26.6667V17.7167H12.2664V15.55H16.4164V26.6667H13.8497Z"/>
</symbol><symbol id="clock" viewBox="0 0 40 40">
<path d="M34.6286 21.862C34.6282 13.6696 28.0625 7.05891 19.9997 7.05891C11.9369 7.05891 5.37123 13.6696 5.37082 21.862C5.37082 30.0547 11.9367 36.6667 19.9997 36.6667C28.0628 36.6667 34.6286 30.0547 34.6286 21.862ZM4.55539 2.16145C5.20268 1.50723 6.25781 1.50136 6.91216 2.14843C7.56643 2.79578 7.57243 3.85086 6.92518 4.5052L2.85129 8.62304C2.204 9.27725 1.14887 9.28312 0.494515 8.63606C-0.159698 7.98877 -0.16557 6.93364 0.481494 6.27929L4.55539 2.16145ZM33.0873 2.14843C33.7416 1.50136 34.7968 1.50723 35.4441 2.16145L39.518 6.27929C40.165 6.93364 40.1591 7.98877 39.5049 8.63606C38.8506 9.28312 37.7955 9.27725 37.1482 8.62304L33.0743 4.5052C32.427 3.85086 32.433 2.79578 33.0873 2.14843ZM37.962 21.862C37.962 31.8621 29.9371 40 19.9997 40C10.0624 40 2.03748 31.8621 2.03748 21.862C2.03789 11.8622 10.0626 3.72558 19.9997 3.72558C29.9368 3.72558 37.9616 11.8622 37.962 21.862Z"/>
<path d="M20.0742 26.6666V20.72H21.9942V21.4133C22.3676 20.8533 22.9231 20.5733 23.6609 20.5733C24.1142 20.5733 24.4876 20.6622 24.7809 20.84C25.092 21.0177 25.332 21.2933 25.5009 21.6666C25.6876 21.3555 25.9409 21.1022 26.2609 20.9066C26.6253 20.6844 27.0476 20.5733 27.5276 20.5733C28.2476 20.5733 28.8031 20.76 29.1942 21.1333C29.6031 21.5244 29.8076 22.1155 29.8076 22.9066V26.6666H27.8876V23.6533C27.8876 23.0933 27.8031 22.7066 27.6342 22.4933C27.4653 22.28 27.2342 22.1733 26.9409 22.1733C26.6209 22.1733 26.372 22.2933 26.1942 22.5333C25.9987 22.7822 25.9009 23.1733 25.9009 23.7066V26.6666H23.9809V23.5733C23.9809 23.0044 23.8787 22.6177 23.6742 22.4133C23.5142 22.2533 23.3009 22.1733 23.0342 22.1733C22.7587 22.1733 22.5364 22.2533 22.3676 22.4133C22.1187 22.6533 21.9942 23.0577 21.9942 23.6266V26.6666H20.0742Z"/>
<path d="M18.2177 15.55V17.7167H14.4677L14.1677 19.2C14.4788 19.1444 14.7844 19.1167 15.0844 19.1167C16.2733 19.1167 17.2177 19.4778 17.9177 20.2C18.5955 20.8778 18.9344 21.7722 18.9344 22.8833C18.9344 24.0389 18.5566 24.9944 17.801 25.75C17.0122 26.5278 15.8899 26.9167 14.4344 26.9167C13.0122 26.9167 11.7788 26.5111 10.7344 25.7L11.3177 23.3167C11.6622 23.7055 12.0177 24.0111 12.3844 24.2333C12.8844 24.5555 13.4455 24.7167 14.0677 24.7167C14.7455 24.7167 15.2733 24.5667 15.651 24.2667C16.0844 23.9333 16.301 23.4667 16.301 22.8667C16.301 22.3333 16.1122 21.9 15.7344 21.5667C15.2899 21.1778 14.6733 20.9833 13.8844 20.9833C13.0844 20.9833 12.3288 21.1778 11.6177 21.5667L12.751 15.55H18.2177Z"/>
</symbol><symbol id="cross" viewBox="0 0 24 24">
<path fill-rule="evenodd" clip-rule="evenodd" d="M5.29289 5.29289C5.68342 4.90237 6.31658 4.90237 6.70711 5.29289L12 10.5858L17.2929 5.29289C17.6834 4.90237 18.3166 4.90237 18.7071 5.29289C19.0976 5.68342 19.0976 6.31658 18.7071 6.70711L13.4142 12L18.7071 17.2929C19.0976 17.6834 19.0976 18.3166 18.7071 18.7071C18.3166 19.0976 17.6834 19.0976 17.2929 18.7071L12 13.4142L6.70711 18.7071C6.31658 19.0976 5.68342 19.0976 5.29289 18.7071C4.90237 18.3166 4.90237 17.6834 5.29289 17.2929L10.5858 12L5.29289 6.70711C4.90237 6.31658 4.90237 5.68342 5.29289 5.29289Z"/>
</symbol><symbol id="image-circle" viewBox="0 0 16 16">
<path d="M13.334 7.99967C13.334 5.05416 10.9462 2.66634 8.00065 2.66634C5.05513 2.66634 2.66732 5.05416 2.66732 7.99967C2.66732 8.98396 2.93476 9.9055 3.39974 10.6969L4.74414 9.48014C4.98937 9.25681 5.20157 9.0635 5.38932 8.91764C5.58393 8.76646 5.79275 8.63329 6.04557 8.55631C6.42516 8.44077 6.83068 8.44082 7.21029 8.55631C7.46315 8.63329 7.67256 8.76644 7.86719 8.91764C8.05527 9.06378 8.26789 9.25761 8.51367 9.48144L9.09961 10.0153C9.24773 9.88213 9.38222 9.76421 9.50651 9.66764C9.70114 9.51644 9.91054 9.38329 10.1634 9.30631C10.543 9.19078 10.9485 9.19077 11.3281 9.30631C11.5809 9.38327 11.7898 9.51648 11.9844 9.66764C12.1697 9.81159 12.3786 10.002 12.6198 10.2217L12.7819 10.3623C13.1345 9.65003 13.334 8.8483 13.334 7.99967ZM6.82227 9.83171C6.69583 9.79323 6.56069 9.79329 6.43424 9.83171C6.39971 9.84222 6.33784 9.86876 6.20703 9.97038C6.06977 10.077 5.9018 10.2293 5.64062 10.4671L5.63932 10.4684L4.21549 11.7568C5.18172 12.7302 6.52077 13.333 8.00065 13.333C8.79801 13.333 9.55376 13.1564 10.2331 12.8428L8.65104 11.4105L8.64974 11.4092L7.61589 10.4671C7.35457 10.2291 7.18613 10.077 7.04883 9.97038C6.91813 9.86886 6.85678 9.84221 6.82227 9.83171ZM10.9401 10.5817C10.8135 10.5432 10.678 10.5432 10.5514 10.5817C10.5169 10.5922 10.4555 10.6189 10.3249 10.7204C10.2572 10.7729 10.1818 10.8362 10.0918 10.9157L11.4043 12.1045C11.6323 11.9152 11.8435 11.7069 12.0371 11.4827L11.7441 11.2275C11.7404 11.2243 11.7367 11.2204 11.7331 11.2171C11.4719 10.9793 11.3039 10.827 11.1667 10.7204C11.036 10.6189 10.9747 10.5922 10.9401 10.5817ZM10.6673 5.99967C10.6673 5.63148 10.3688 5.33301 10.0007 5.33301C9.63246 5.33301 9.33398 5.63148 9.33398 5.99967C9.33398 6.36786 9.63246 6.66634 10.0007 6.66634C10.3688 6.66634 10.6673 6.36786 10.6673 5.99967ZM14.6673 7.99967C14.6673 9.39272 14.2391 10.6853 13.5085 11.7549C13.4992 11.7692 13.489 11.7828 13.4785 11.7965C13.0155 12.4633 12.4346 13.0412 11.765 13.5003C11.7576 13.5059 11.7504 13.5114 11.7428 13.5166C10.6758 14.2418 9.388 14.6663 8.00065 14.6663C5.88913 14.6663 4.00795 13.6838 2.78646 12.152C2.76731 12.1309 2.75031 12.1084 2.73437 12.0856C1.85738 10.9569 1.33398 9.53973 1.33398 7.99967C1.33398 4.31778 4.31875 1.33301 8.00065 1.33301C11.6825 1.33301 14.6673 4.31778 14.6673 7.99967ZM12.0007 5.99967C12.0007 7.10424 11.1052 7.99967 10.0007 7.99967C8.89608 7.99967 8.00065 7.10424 8.00065 5.99967C8.00065 4.8951 8.89608 3.99967 10.0007 3.99967C11.1052 3.99967 12.0007 4.8951 12.0007 5.99967Z"/>
</symbol><symbol id="radio-checked" viewBox="0 0 26 26">
<path d="M0 8C0 3.58172 3.58172 0 8 0H18C22.4183 0 26 3.58172 26 8V18C26 22.4183 22.4183 26 18 26H8C3.58172 26 0 22.4183 0 18V8Z"/>
</symbol><symbol id="timer" viewBox="0 0 16 16">
<path d="M4.62598 4.62598C5.01639 4.23556 5.64949 4.23578 6.04004 4.62598L8.70703 7.29297C9.09756 7.68349 9.09756 8.31651 8.70703 8.70703C8.31651 9.09756 7.68349 9.09756 7.29297 8.70703L4.62598 6.04004C4.23578 5.64949 4.23556 5.01639 4.62598 4.62598ZM7 4V2C7 1.44772 7.44772 1 8 1C11.866 1 15 4.13401 15 8C15 11.866 11.866 15 8 15C4.13401 15 1 11.866 1 8C1 6.56241 1.43477 5.22321 2.17969 4.11035C2.48694 3.65156 3.10752 3.52879 3.56641 3.83594C4.02523 4.14307 4.14869 4.76374 3.8418 5.22266C3.31035 6.0166 3 6.97072 3 8C3 10.7614 5.23858 13 8 13C10.7614 13 13 10.7614 13 8C13 5.58101 11.2823 3.56285 9 3.09961V4C9 4.55228 8.55228 5 8 5C7.44772 5 7 4.55228 7 4Z"/>
</symbol></svg>