<svg width="274" height="136" viewBox="0 0 274 136" fill="none" xmlns="http://www.w3.org/2000/svg">
<path d="M0 12C0 5.37259 5.37258 0 12 0H262C268.627 0 274 5.37258 274 12V124C274 130.627 268.627 136 262 136H12C5.37259 136 0 130.627 0 124V12Z" fill="#6A7282"/>
<path d="M57.4031 27.2233C57.6933 26.924 58.1629 26.9257 58.4512 27.2271C58.7395 27.5285 58.7378 28.0162 58.4476 28.3155L50.2426 36.7767C49.9538 37.0744 49.4876 37.0743 49.1988 36.7767L45.5516 33.0156C45.2616 32.7162 45.2599 32.2292 45.548 31.9279C45.8362 31.6265 46.3058 31.6248 46.5961 31.9241L49.7203 35.1459L57.4031 27.2233Z" fill="white"/>
<path d="M71 29.6H74.8C75.9467 29.6 76.9333 30.0133 77.76 30.84C78.5867 31.6667 79 32.6533 79 33.8C79 34.96 78.5867 35.9533 77.76 36.78C76.9467 37.5933 75.96 38 74.8 38H69.6V24H77.8V25.32H71V29.6ZM71 36.68H74.8C75.5733 36.68 76.2333 36.4 76.78 35.84C77.3267 35.2667 77.6 34.5867 77.6 33.8C77.6 33.0267 77.3267 32.3533 76.78 31.78C76.2467 31.2067 75.5867 30.92 74.8 30.92H71V36.68ZM86.2992 38H81.2992V24H82.6992V29.2H86.2992C87.5526 29.2 88.5992 29.62 89.4392 30.46C90.2792 31.3 90.6992 32.3467 90.6992 33.6C90.6992 34.8533 90.2792 35.9 89.4392 36.74C88.5992 37.58 87.5526 38 86.2992 38ZM93.5992 38H92.1992V24H93.5992V38ZM82.6992 30.52V36.68H86.2992C87.1659 36.68 87.8792 36.3933 88.4392 35.82C89.0126 35.2467 89.2992 34.5067 89.2992 33.6C89.2992 32.7067 89.0126 31.9733 88.4392 31.4C87.8792 30.8133 87.1659 30.52 86.2992 30.52H82.6992ZM103.347 38.24C101.214 38.24 99.4604 37.54 98.087 36.14C96.7004 34.7267 96.007 33.0133 96.007 31C96.007 28.9867 96.7004 27.2733 98.087 25.86C99.4604 24.46 101.214 23.76 103.347 23.76C104.627 23.76 105.807 24.0733 106.887 24.7C107.967 25.3133 108.807 26.1467 109.407 27.2L108.167 27.92C107.727 27.0667 107.074 26.3867 106.207 25.88C105.34 25.3733 104.387 25.12 103.347 25.12C101.587 25.12 100.16 25.6867 99.067 26.82C97.9604 27.9667 97.407 29.36 97.407 31C97.407 32.64 97.9604 34.0333 99.067 35.18C100.16 36.3133 101.587 36.88 103.347 36.88C104.387 36.88 105.34 36.6267 106.207 36.12C107.074 35.6133 107.727 34.9333 108.167 34.08L109.407 34.78C108.834 35.8333 108 36.6733 106.907 37.3C105.814 37.9267 104.627 38.24 103.347 38.24ZM110.314 24H120.314V25.32H116.014V38H114.614V25.32H110.314V24ZM122.315 24H127.315C128.568 24 129.615 24.42 130.455 25.26C131.295 26.1 131.715 27.1467 131.715 28.4C131.715 29.6533 131.295 30.7 130.455 31.54C129.615 32.38 128.568 32.8 127.315 32.8H123.715V38H122.315V24ZM123.715 31.48H127.315C128.182 31.48 128.895 31.1933 129.455 30.62C130.028 30.0467 130.315 29.3067 130.315 28.4C130.315 27.5067 130.028 26.7733 129.455 26.2C128.895 25.6133 128.182 25.32 127.315 25.32H123.715V31.48ZM135.512 31.6V36.68H142.312V38H134.112V24H142.212V25.32H135.512V30.28H141.712V31.6H135.512ZM146.117 31.6V36.68H152.917V38H144.717V24H152.817V25.32H146.117V30.28H152.317V31.6H146.117ZM164.083 36.38L167.323 28H168.723L164.443 38.92C164.043 39.9333 163.483 40.7133 162.763 41.26C162.056 41.82 161.269 42.0667 160.403 42V40.76C161.603 40.9067 162.516 40.2133 163.143 38.68L163.403 38.06L158.923 28H160.323L164.083 36.38ZM174.587 38.24C173.081 38.24 171.827 37.74 170.827 36.74C169.827 35.7133 169.327 34.4667 169.327 33C169.327 31.52 169.827 30.28 170.827 29.28C171.827 28.2667 173.081 27.76 174.587 27.76C175.574 27.76 176.461 28 177.247 28.48C178.034 28.9467 178.607 29.58 178.967 30.38L177.887 31C177.621 30.4 177.187 29.9267 176.587 29.58C176.001 29.22 175.334 29.04 174.587 29.04C173.481 29.04 172.547 29.4267 171.787 30.2C171.027 30.96 170.647 31.8933 170.647 33C170.647 34.0933 171.027 35.0333 171.787 35.82C172.547 36.58 173.481 36.96 174.587 36.96C175.321 36.96 175.981 36.7867 176.567 36.44C177.167 36.0933 177.634 35.6133 177.967 35L179.067 35.64C178.654 36.44 178.047 37.0733 177.247 37.54C176.447 38.0067 175.561 38.24 174.587 38.24ZM187.323 32.86C188.416 33.26 188.963 34.04 188.963 35.2C188.963 36.0267 188.683 36.7 188.123 37.22C187.576 37.74 186.809 38 185.823 38H180.963V28H185.423C186.383 28 187.129 28.2467 187.663 28.74C188.209 29.2333 188.483 29.88 188.483 30.68C188.483 31.68 188.096 32.4067 187.323 32.86ZM185.423 29.28H182.283V32.32H185.423C186.583 32.32 187.163 31.8 187.163 30.76C187.163 30.2933 187.009 29.9333 186.703 29.68C186.409 29.4133 185.983 29.28 185.423 29.28ZM182.283 36.72H185.823C186.409 36.72 186.856 36.58 187.163 36.3C187.483 36.02 187.643 35.6267 187.643 35.12C187.643 34.64 187.483 34.2667 187.163 34C186.856 33.7333 186.409 33.6 185.823 33.6H182.283V36.72ZM199.343 36.74C198.316 37.74 197.076 38.24 195.623 38.24C194.143 38.24 192.896 37.74 191.883 36.74C190.869 35.7267 190.363 34.48 190.363 33C190.363 31.52 190.869 30.28 191.883 29.28C192.896 28.2667 194.143 27.76 195.623 27.76C197.089 27.76 198.329 28.2667 199.343 29.28C200.369 30.28 200.883 31.52 200.883 33C200.883 34.4667 200.369 35.7133 199.343 36.74ZM192.823 35.82C193.583 36.58 194.516 36.96 195.623 36.96C196.729 36.96 197.663 36.58 198.423 35.82C199.183 35.0333 199.562 34.0933 199.562 33C199.562 31.8933 199.183 30.96 198.423 30.2C197.663 29.4267 196.729 29.04 195.623 29.04C194.516 29.04 193.583 29.4267 192.823 30.2C192.063 30.96 191.683 31.8933 191.683 33C191.683 34.0933 192.063 35.0333 192.823 35.82ZM207.711 27.76C209.205 27.76 210.398 28.2867 211.291 29.34C212.211 30.38 212.671 31.6133 212.671 33.04C212.671 33.1067 212.658 33.3133 212.631 33.66H203.851C203.985 34.66 204.411 35.46 205.131 36.06C205.851 36.66 206.751 36.96 207.831 36.96C209.351 36.96 210.425 36.3933 211.051 35.26L212.211 35.94C211.771 36.66 211.165 37.2267 210.391 37.64C209.631 38.04 208.771 38.24 207.811 38.24C206.238 38.24 204.958 37.7467 203.971 36.76C202.985 35.7733 202.491 34.52 202.491 33C202.491 31.4933 202.978 30.2467 203.951 29.26C204.925 28.26 206.178 27.76 207.711 27.76ZM207.711 29.04C206.671 29.04 205.798 29.3467 205.091 29.96C204.398 30.5733 203.985 31.38 203.851 32.38H211.311C211.165 31.3133 210.758 30.4933 210.091 29.92C209.398 29.3333 208.605 29.04 207.711 29.04ZM221.851 32.36V28H223.171V38H221.851V33.64H216.091V38H214.771V28H216.091V32.36H221.851ZM227.283 35.7L233.243 28H234.363V38H233.043V30.3L227.083 38H225.963V28H227.283V35.7ZM241.774 27.76C243.267 27.76 244.461 28.2867 245.354 29.34C246.274 30.38 246.734 31.6133 246.734 33.04C246.734 33.1067 246.721 33.3133 246.694 33.66H237.914C238.047 34.66 238.474 35.46 239.194 36.06C239.914 36.66 240.814 36.96 241.894 36.96C243.414 36.96 244.487 36.3933 245.114 35.26L246.274 35.94C245.834 36.66 245.227 37.2267 244.454 37.64C243.694 38.04 242.834 38.24 241.874 38.24C240.301 38.24 239.021 37.7467 238.034 36.76C237.047 35.7733 236.554 34.52 236.554 33C236.554 31.4933 237.041 30.2467 238.014 29.26C238.987 28.26 240.241 27.76 241.774 27.76ZM241.774 29.04C240.734 29.04 239.861 29.3467 239.154 29.96C238.461 30.5733 238.047 31.38 237.914 32.38H245.374C245.227 31.3133 244.821 30.4933 244.154 29.92C243.461 29.3333 242.667 29.04 241.774 29.04Z" fill="white"/>
<path d="M57.4031 63.2233C57.6933 62.924 58.1629 62.9257 58.4512 63.2271C58.7395 63.5285 58.7378 64.0162 58.4476 64.3155L50.2426 72.7767C49.9538 73.0744 49.4876 73.0743 49.1988 72.7767L45.5516 69.0156C45.2616 68.7162 45.2599 68.2292 45.548 67.9279C45.8362 67.6265 46.3058 67.6248 46.5961 67.9241L49.7203 71.1459L57.4031 63.2233Z" fill="white"/>
<path d="M77.36 66.74C78.0533 67.0333 78.6 67.48 79 68.08C79.4 68.68 79.6 69.3533 79.6 70.1C79.6 71.18 79.22 72.1 78.46 72.86C77.7 73.62 76.78 74 75.7 74H69.6V60H75.24C76.2667 60 77.1533 60.3733 77.9 61.12C78.6333 61.8533 79 62.7333 79 63.76C79 65.0667 78.4533 66.06 77.36 66.74ZM75.24 61.32H71V66.2H75.24C75.88 66.2 76.4333 65.9667 76.9 65.5C77.3667 65.0067 77.6 64.4267 77.6 63.76C77.6 63.1067 77.3667 62.5333 76.9 62.04C76.4333 61.56 75.88 61.32 75.24 61.32ZM71 72.68H75.7C76.3933 72.68 76.98 72.4333 77.46 71.94C77.9533 71.4467 78.2 70.8333 78.2 70.1C78.2 69.38 77.9533 68.7733 77.46 68.28C76.98 67.7733 76.3933 67.52 75.7 67.52H71V72.68ZM87.0023 74H82.0023V60H83.4023V65.2H87.0023C88.2557 65.2 89.3023 65.62 90.1423 66.46C90.9823 67.3 91.4023 68.3467 91.4023 69.6C91.4023 70.8533 90.9823 71.9 90.1423 72.74C89.3023 73.58 88.2557 74 87.0023 74ZM94.3023 74H92.9023V60H94.3023V74ZM83.4023 66.52V72.68H87.0023C87.869 72.68 88.5823 72.3933 89.1423 71.82C89.7157 71.2467 90.0023 70.5067 90.0023 69.6C90.0023 68.7067 89.7157 67.9733 89.1423 67.4C88.5823 66.8133 87.869 66.52 87.0023 66.52H83.4023ZM111.91 72.68V60H113.31V74H97.5102V60H98.9102V72.68H104.71V60H106.11V72.68H111.91ZM117.914 67.6V72.68H124.714V74H116.514V60H124.614V61.32H117.914V66.28H124.114V67.6H117.914ZM140.12 64V72.72H141.72V76.68H140.4V74H131.92V64H133.24V72.72H138.8V64H140.12ZM147.946 63.76C149.439 63.76 150.632 64.2867 151.526 65.34C152.446 66.38 152.906 67.6133 152.906 69.04C152.906 69.1067 152.892 69.3133 152.866 69.66H144.086C144.219 70.66 144.646 71.46 145.366 72.06C146.086 72.66 146.986 72.96 148.066 72.96C149.586 72.96 150.659 72.3933 151.286 71.26L152.446 71.94C152.006 72.66 151.399 73.2267 150.626 73.64C149.866 74.04 149.006 74.24 148.046 74.24C146.472 74.24 145.192 73.7467 144.206 72.76C143.219 71.7733 142.726 70.52 142.726 69C142.726 67.4933 143.212 66.2467 144.186 65.26C145.159 64.26 146.412 63.76 147.946 63.76ZM147.946 65.04C146.906 65.04 146.032 65.3467 145.326 65.96C144.632 66.5733 144.219 67.38 144.086 68.38H151.546C151.399 67.3133 150.992 66.4933 150.326 65.92C149.632 65.3333 148.839 65.04 147.946 65.04ZM162.085 68.36V64H163.405V74H162.085V69.64H156.325V74H155.005V64H156.325V68.36H162.085ZM173.277 68.36V64H174.597V74H173.277V69.64H167.517V74H166.197V64H167.517V68.36H173.277ZM185.768 72.74C184.742 73.74 183.502 74.24 182.048 74.24C180.568 74.24 179.322 73.74 178.308 72.74C177.295 71.7267 176.788 70.48 176.788 69C176.788 67.52 177.295 66.28 178.308 65.28C179.322 64.2667 180.568 63.76 182.048 63.76C183.515 63.76 184.755 64.2667 185.768 65.28C186.795 66.28 187.308 67.52 187.308 69C187.308 70.4667 186.795 71.7133 185.768 72.74ZM179.248 71.82C180.008 72.58 180.942 72.96 182.048 72.96C183.155 72.96 184.088 72.58 184.848 71.82C185.608 71.0333 185.988 70.0933 185.988 69C185.988 67.8933 185.608 66.96 184.848 66.2C184.088 65.4267 183.155 65.04 182.048 65.04C180.942 65.04 180.008 65.4267 179.248 66.2C178.488 66.96 178.108 67.8933 178.108 69C178.108 70.0933 178.488 71.0333 179.248 71.82ZM194.177 74.24C192.671 74.24 191.417 73.74 190.417 72.74C189.417 71.7133 188.917 70.4667 188.917 69C188.917 67.52 189.417 66.28 190.417 65.28C191.417 64.2667 192.671 63.76 194.177 63.76C195.164 63.76 196.051 64 196.837 64.48C197.624 64.9467 198.197 65.58 198.557 66.38L197.477 67C197.211 66.4 196.777 65.9267 196.177 65.58C195.591 65.22 194.924 65.04 194.177 65.04C193.071 65.04 192.137 65.4267 191.377 66.2C190.617 66.96 190.237 67.8933 190.237 69C190.237 70.0933 190.617 71.0333 191.377 71.82C192.137 72.58 193.071 72.96 194.177 72.96C194.911 72.96 195.571 72.7867 196.157 72.44C196.757 72.0933 197.224 71.6133 197.557 71L198.657 71.64C198.244 72.44 197.637 73.0733 196.837 73.54C196.037 74.0067 195.151 74.24 194.177 74.24ZM199.157 64H207.557V65.28H204.017V74H202.697V65.28H199.157V64ZM210.486 67.8H213.226C214.146 67.8 214.932 68.0933 215.586 68.68C216.239 69.2533 216.566 69.9933 216.566 70.9C216.566 71.82 216.239 72.5667 215.586 73.14C214.959 73.7133 214.172 74 213.226 74H209.166V64H210.486V67.8ZM210.486 72.72H213.226C213.799 72.72 214.279 72.5533 214.666 72.22C215.052 71.8733 215.246 71.4333 215.246 70.9C215.246 70.3667 215.052 69.9333 214.666 69.6C214.279 69.2533 213.799 69.08 213.226 69.08H210.486V72.72Z" fill="white"/>
<path d="M57.4031 99.2233C57.6933 98.924 58.1629 98.9257 58.4512 99.2271C58.7395 99.5285 58.7378 100.016 58.4476 100.316L50.2426 108.777C49.9538 109.074 49.4876 109.074 49.1988 108.777L45.5516 105.016C45.2616 104.716 45.2599 104.229 45.548 103.928C45.8362 103.626 46.3058 103.625 46.5961 103.924L49.7203 107.146L57.4031 99.2233Z" fill="white"/>
<path d="M76.14 110.24C74.0067 110.24 72.2533 109.54 70.88 108.14C69.4933 106.727 68.8 105.013 68.8 103C68.8 100.987 69.4933 99.2733 70.88 97.86C72.2533 96.46 74.0067 95.76 76.14 95.76C77.42 95.76 78.6 96.0733 79.68 96.7C80.76 97.3133 81.6 98.1467 82.2 99.2L80.96 99.92C80.52 99.0667 79.8667 98.3867 79 97.88C78.1333 97.3733 77.18 97.12 76.14 97.12C74.38 97.12 72.9533 97.6867 71.86 98.82C70.7533 99.9667 70.2 101.36 70.2 103C70.2 104.64 70.7533 106.033 71.86 107.18C72.9533 108.313 74.38 108.88 76.14 108.88C77.18 108.88 78.1333 108.627 79 108.12C79.8667 107.613 80.52 106.933 80.96 106.08L82.2 106.78C81.6267 107.833 80.7933 108.673 79.7 109.3C78.6067 109.927 77.42 110.24 76.14 110.24ZM94.9023 110H93.5023V98.6L85.7023 110H84.5023V96H85.9023V107.4L93.7023 96H94.9023V110ZM96.7961 110V108.76C97.7694 108.893 98.4961 108.593 98.9761 107.86C99.4694 107.127 99.7161 105.767 99.7161 103.78V96H108.796V110H107.396V97.32H101.116V103.82C101.116 105.087 101.016 106.147 100.816 107C100.616 107.853 100.316 108.5 99.9161 108.94C99.5294 109.38 99.0828 109.68 98.5761 109.84C98.0828 110 97.4894 110.053 96.7961 110ZM113.402 101.2H117.002C118.256 101.2 119.302 101.62 120.142 102.46C120.982 103.3 121.402 104.347 121.402 105.6C121.402 106.853 120.982 107.9 120.142 108.74C119.302 109.58 118.256 110 117.002 110H112.002V96H113.402V101.2ZM113.402 108.68H117.002C117.869 108.68 118.582 108.393 119.142 107.82C119.716 107.247 120.002 106.507 120.002 105.6C120.002 104.707 119.716 103.973 119.142 103.4C118.582 102.813 117.869 102.52 117.002 102.52H113.402V108.68ZM132.799 102.14V96H134.199V110H132.799V103.46H125.199V110H123.799V96H125.199V102.14H132.799ZM138.793 103.6V108.68H145.593V110H137.393V96H145.493V97.32H138.793V102.28H144.993V103.6H138.793ZM149.398 103.6V108.68H156.198V110H147.998V96H156.098V97.32H149.398V102.28H155.598V103.6H149.398ZM168.764 99.76C170.191 99.76 171.404 100.267 172.404 101.28C173.417 102.293 173.924 103.533 173.924 105C173.924 106.467 173.417 107.707 172.404 108.72C171.404 109.733 170.191 110.24 168.764 110.24C166.991 110.24 165.644 109.507 164.724 108.04V114H163.404V100H164.724V101.96C165.644 100.493 166.991 99.76 168.764 99.76ZM165.864 107.82C166.624 108.58 167.557 108.96 168.664 108.96C169.771 108.96 170.704 108.58 171.464 107.82C172.224 107.033 172.604 106.093 172.604 105C172.604 103.893 172.224 102.96 171.464 102.2C170.704 101.427 169.771 101.04 168.664 101.04C167.557 101.04 166.624 101.427 165.864 102.2C165.104 102.96 164.724 103.893 164.724 105C164.724 106.093 165.104 107.033 165.864 107.82ZM180.739 99.76C182.232 99.76 183.425 100.287 184.319 101.34C185.239 102.38 185.699 103.613 185.699 105.04C185.699 105.107 185.685 105.313 185.659 105.66H176.879C177.012 106.66 177.439 107.46 178.159 108.06C178.879 108.66 179.779 108.96 180.859 108.96C182.379 108.96 183.452 108.393 184.079 107.26L185.239 107.94C184.799 108.66 184.192 109.227 183.419 109.64C182.659 110.04 181.799 110.24 180.839 110.24C179.265 110.24 177.985 109.747 176.999 108.76C176.012 107.773 175.519 106.52 175.519 105C175.519 103.493 176.005 102.247 176.979 101.26C177.952 100.26 179.205 99.76 180.739 99.76ZM180.739 101.04C179.699 101.04 178.825 101.347 178.119 101.96C177.425 102.573 177.012 103.38 176.879 104.38H184.339C184.192 103.313 183.785 102.493 183.119 101.92C182.425 101.333 181.632 101.04 180.739 101.04ZM192.763 104.86C193.923 105.3 194.503 106.1 194.503 107.26C194.503 108.1 194.176 108.807 193.523 109.38C192.896 109.953 191.976 110.24 190.763 110.24C188.736 110.24 187.416 109.44 186.803 107.84L187.923 107.18C188.35 108.367 189.296 108.96 190.763 108.96C191.523 108.96 192.116 108.8 192.543 108.48C192.97 108.147 193.183 107.713 193.183 107.18C193.183 106.7 193.01 106.32 192.663 106.04C192.316 105.747 191.85 105.6 191.263 105.6H189.803V104.32H190.863C191.436 104.32 191.883 104.18 192.203 103.9C192.536 103.607 192.703 103.207 192.703 102.7C192.703 102.22 192.503 101.827 192.103 101.52C191.716 101.2 191.203 101.04 190.563 101.04C189.323 101.04 188.49 101.54 188.063 102.54L186.963 101.9C187.63 100.473 188.83 99.76 190.563 99.76C191.63 99.76 192.47 100.04 193.083 100.6C193.71 101.147 194.023 101.82 194.023 102.62C194.023 103.647 193.603 104.393 192.763 104.86ZM200.079 108.38L203.319 100H204.719L200.439 110.92C200.039 111.933 199.479 112.713 198.759 113.26C198.052 113.82 197.265 114.067 196.399 114V112.76C197.599 112.907 198.512 112.213 199.139 110.68L199.399 110.06L194.919 100H196.319L200.079 108.38ZM206.749 100H213.909V110H212.589V101.28H208.069V105.74C208.069 107.407 207.749 108.553 207.109 109.18C206.482 109.807 205.615 110.08 204.509 110V108.76C205.282 108.84 205.849 108.653 206.209 108.2C206.569 107.747 206.749 106.927 206.749 105.74V100ZM218.025 103.8H220.765C221.685 103.8 222.471 104.093 223.125 104.68C223.778 105.253 224.105 105.993 224.105 106.9C224.105 107.82 223.778 108.567 223.125 109.14C222.498 109.713 221.711 110 220.765 110H216.705V100H218.025V103.8ZM218.025 108.72H220.765C221.338 108.72 221.818 108.553 222.205 108.22C222.591 107.873 222.785 107.433 222.785 106.9C222.785 106.367 222.591 105.933 222.205 105.6C221.818 105.253 221.338 105.08 220.765 105.08H218.025V108.72ZM223.708 100H232.108V101.28H228.568V110H227.248V101.28H223.708V100ZM241.926 101.96V100H243.246V110H241.926V108.04C241.006 109.507 239.659 110.24 237.886 110.24C236.459 110.24 235.239 109.733 234.226 108.72C233.226 107.707 232.726 106.467 232.726 105C232.726 103.533 233.226 102.293 234.226 101.28C235.239 100.267 236.459 99.76 237.886 99.76C239.659 99.76 241.006 100.493 241.926 101.96ZM235.186 107.82C235.946 108.58 236.879 108.96 237.986 108.96C239.092 108.96 240.026 108.58 240.786 107.82C241.546 107.033 241.926 106.093 241.926 105C241.926 103.893 241.546 102.96 240.786 102.2C240.026 101.427 239.092 101.04 237.986 101.04C236.879 101.04 235.946 101.427 235.186 102.2C234.426 102.96 234.046 103.893 234.046 105C234.046 106.093 234.426 107.033 235.186 107.82ZM244.841 100H253.241V101.28H249.701V110H248.381V101.28H244.841V100Z" fill="white"/>
</svg>
