<svg width="315" height="221" viewBox="0 0 315 221" fill="none" xmlns="http://www.w3.org/2000/svg">
<g clip-path="url(#clip0_73_2176)">
<path d="M298.439 194.299L314.939 219.932H300.714L286.419 197.645V219.932H273.688V170.09H286.419V191.023L300.003 170.09H314.228L298.439 194.299Z" fill="#1E2939"/>
<path d="M260.171 213.524C255.097 218.508 248.933 221 241.679 221C234.329 221 228.141 218.508 223.115 213.524C218.089 208.492 215.576 202.321 215.576 195.011C215.576 187.701 218.089 181.553 223.115 176.569C228.141 171.538 234.329 169.022 241.679 169.022C248.981 169.022 255.145 171.538 260.171 176.569C265.244 181.553 267.781 187.701 267.781 195.011C267.781 202.274 265.244 208.445 260.171 213.524ZM232.077 204.766C234.685 207.282 237.885 208.539 241.679 208.539C245.472 208.539 248.672 207.282 251.28 204.766C253.841 202.202 255.121 198.951 255.121 195.011C255.121 191.023 253.841 187.796 251.28 185.327C248.72 182.764 245.519 181.482 241.679 181.482C237.838 181.482 234.637 182.764 232.077 185.327C229.516 187.796 228.236 191.023 228.236 195.011C228.236 198.951 229.516 202.202 232.077 204.766Z" fill="#1E2939"/>
<path d="M166.638 219.932V208.041C169.388 208.373 171.332 207.97 172.47 206.831C173.655 205.644 174.248 203.342 174.248 199.924V170.09H209.668V219.932H196.936V182.408H186.979V200.494C186.979 208.706 184.798 214.236 180.436 217.084C176.69 219.552 172.091 220.502 166.638 219.932Z" fill="#1E2939"/>
<path d="M144.863 200.636V207.97H164.138V219.932H132.132V170.09H163.782V181.981H144.863V188.887H162.004V200.636H144.863Z" fill="#1E2939"/>
<path d="M102.773 188.46H110.597C115.623 188.46 119.677 189.884 122.759 192.732C125.794 195.58 127.311 199.378 127.311 204.125C127.311 208.872 125.794 212.693 122.759 215.589C119.724 218.484 115.67 219.932 110.597 219.932H90.042V170.09H123.043V182.408H102.773V188.46ZM102.773 208.255H110.099C113.133 208.255 114.651 206.878 114.651 204.125C114.651 202.748 114.248 201.704 113.442 200.992C112.636 200.28 111.521 199.924 110.099 199.924H102.773V208.255Z" fill="#1E2939"/>
<path d="M187.115 35.9954C181.84 35.9954 177.467 34.2574 173.995 30.7815C170.456 27.2388 168.687 22.9608 168.687 17.9475C168.687 13.0011 170.456 8.75653 173.995 5.21381C177.467 1.73794 181.84 0 187.115 0C192.323 0 196.663 1.73794 200.135 5.21381C203.607 8.68969 205.343 12.9343 205.343 17.9475C205.343 22.9608 203.573 27.2388 200.035 30.7815C196.563 34.2574 192.256 35.9954 187.115 35.9954ZM186.013 64.5711L179.103 60.6607L225.173 10.5279L232.184 14.5385L186.013 64.5711ZM187.015 23.2616C189.151 23.3953 190.654 22.5598 191.522 20.755C192.456 18.8834 192.456 17.0452 191.522 15.2404C190.654 13.4356 189.151 12.6 187.015 12.7337C185.546 12.7337 184.311 13.2351 183.309 14.2377C182.374 15.2404 181.907 16.477 181.907 17.9475C181.907 19.4849 182.374 20.755 183.309 21.7576C184.311 22.7603 185.546 23.2616 187.015 23.2616ZM225.874 73.0936C220.533 73.0936 216.126 71.3557 212.654 67.8798C209.182 64.4039 207.446 60.1594 207.446 55.1461C207.446 50.066 209.182 45.788 212.654 42.3121C216.126 38.8362 220.533 37.0983 225.874 37.0983C231.016 37.0983 235.356 38.8696 238.894 42.4123C242.366 45.8882 244.102 50.1328 244.102 55.1461C244.102 60.0925 242.333 64.3371 238.794 67.8798C235.322 71.3557 231.016 73.0936 225.874 73.0936ZM230.882 55.1461C230.882 53.6087 230.381 52.3386 229.38 51.336C228.445 50.3333 227.243 49.832 225.774 49.832C224.305 49.832 223.07 50.3333 222.068 51.336C221.134 52.3386 220.666 53.6087 220.666 55.1461C220.666 56.6166 221.134 57.8533 222.068 58.8559C223.07 59.8586 224.305 60.3599 225.774 60.3599C227.176 60.3599 228.378 59.8586 229.38 58.8559C230.381 57.7864 230.882 56.5498 230.882 55.1461Z" fill="#1E2939"/>
<path d="M156.937 63.2676C151.862 69.8851 144.752 73.1939 135.604 73.1939C126.457 73.1939 119.312 69.8851 114.171 63.2676C109.097 56.5832 106.56 47.693 106.56 36.5969C106.56 25.434 109.097 16.5772 114.171 10.0266C119.246 3.34219 126.39 0 135.604 0C144.752 0 151.862 3.34219 156.937 10.0266C162.078 16.7109 164.649 25.5677 164.649 36.5969C164.649 47.6262 162.078 56.5164 156.937 63.2676ZM135.604 17.4462C128.193 17.4462 124.487 23.8298 124.487 36.5969C124.487 49.3641 128.193 55.7477 135.604 55.7477C143.016 55.7477 146.721 49.3641 146.721 36.5969C146.721 23.8298 143.016 17.4462 135.604 17.4462Z" fill="#1E2939"/>
<path d="M93.8471 63.2676C88.7726 69.8851 81.6617 73.1939 72.5143 73.1939C63.3669 73.1939 56.2226 69.8851 51.0814 63.2676C46.007 56.5832 43.4697 47.693 43.4697 36.5969C43.4697 25.434 46.007 16.5772 51.0814 10.0266C56.1559 3.34219 63.3002 0 72.5143 0C81.6617 0 88.7726 3.34219 93.8471 10.0266C98.9883 16.7109 101.559 25.5677 101.559 36.5969C101.559 47.6262 98.9883 56.5164 93.8471 63.2676ZM72.5143 17.4462C65.1029 17.4462 61.3973 23.8298 61.3973 36.5969C61.3973 49.3641 65.1029 55.7477 72.5143 55.7477C79.9257 55.7477 83.6314 49.3641 83.6314 36.5969C83.6314 23.8298 79.9257 17.4462 72.5143 17.4462Z" fill="#1E2939"/>
<path d="M0 8.32203L19.0292 1.50397H34.4529V71.6899H16.5254V20.3539L4.30661 23.4621L0 8.32203Z" fill="#1E2939"/>
<path d="M283.461 89.5139H272.054V84.6023H283.461V89.5139ZM288.214 118.19H282.13V103.833L271.864 118.19H267.302V91.7429H273.385V106.1L283.651 91.7429H288.214V118.19Z" fill="#1E2939"/>
<path d="M245.073 118.19H234.997V91.743H241.081V100.055H245.073C247.709 100.055 249.914 100.936 251.689 102.7C253.488 104.488 254.388 106.629 254.388 109.122C254.388 111.616 253.488 113.757 251.689 115.545C249.914 117.308 247.709 118.19 245.073 118.19ZM262.753 118.19H256.669V91.743H262.753V118.19ZM241.081 105.722V112.523H245.073C246.011 112.523 246.784 112.195 247.392 111.54C248 110.885 248.305 110.079 248.305 109.122C248.305 108.165 248 107.359 247.392 106.704C246.784 106.049 246.011 105.722 245.073 105.722H241.081Z" fill="#1E2939"/>
<path d="M223.966 101.868V91.743H230.049V118.19H223.966V107.687H215.601V118.19H209.518V91.743H215.601V101.868H223.966Z" fill="#1E2939"/>
<path d="M198.484 101.868V91.743H204.568V118.19H198.484V107.687H190.12V118.19H184.036V91.743H190.12V101.868H198.484Z" fill="#1E2939"/>
<path d="M169.573 107.687V112.372H180.219V118.19H163.489V91.743H180.029V97.5613H169.573V101.944H179.078V107.687H169.573Z" fill="#1E2939"/>
<path d="M157.011 91.743V112.372H159.862V123.253H153.779V118.19H136.859V91.743H142.943V112.372H150.927V91.743H157.011Z" fill="#1E2939"/>
<path d="M128.84 114.714C126.179 117.359 122.921 118.681 119.068 118.681C115.216 118.681 111.946 117.359 109.259 114.714C106.597 112.044 105.267 108.795 105.267 104.966C105.267 101.138 106.597 97.9013 109.259 95.2566C111.946 92.5867 115.216 91.2518 119.068 91.2518C122.921 91.2518 126.179 92.5867 128.84 95.2566C131.527 97.9013 132.87 101.138 132.87 104.966C132.87 108.795 131.527 112.044 128.84 114.714ZM112.339 111.767C114.189 113.555 116.432 114.449 119.068 114.449C121.73 114.449 123.961 113.555 125.76 111.767C127.585 109.954 128.498 107.687 128.498 104.966C128.498 102.246 127.585 99.9919 125.76 98.2035C123.961 96.39 121.73 95.4833 119.068 95.4833C116.407 95.4833 114.164 96.39 112.339 98.2035C110.539 99.9919 109.639 102.246 109.639 104.966C109.639 107.661 110.539 109.928 112.339 111.767Z" fill="#1E2939"/>
<path d="M96.527 102.586V91.743H100.9V118.19H96.527V106.742H85.1205V118.19H80.748V91.743H85.1205V102.586H96.527Z" fill="#1E2939"/>
<path d="M52.2461 118.19V114.185C53.9697 114.412 55.2245 113.996 56.0102 112.938C56.8214 111.855 57.2269 109.891 57.2269 107.044V91.743H75.0591V118.19H70.6866V95.8989H61.5994V106.969C61.5994 111.578 60.6489 114.727 58.7478 116.414C57.0495 117.875 54.8823 118.467 52.2461 118.19Z" fill="#1E2939"/>
<path d="M47.5344 114.714C44.8729 117.359 41.6157 118.681 37.7628 118.681C33.9099 118.681 30.6401 117.359 27.9532 114.714C25.2917 112.044 23.9609 108.795 23.9609 104.966C23.9609 101.138 25.2917 97.9013 27.9532 95.2566C30.6401 92.5867 33.9099 91.2518 37.7628 91.2518C41.6157 91.2518 44.8729 92.5867 47.5344 95.2566C50.2212 97.9013 51.5647 101.138 51.5647 104.966C51.5647 108.795 50.2212 112.044 47.5344 114.714ZM31.033 111.767C32.8834 113.555 35.1266 114.449 37.7628 114.449C40.4243 114.449 42.6549 113.555 44.4546 111.767C46.2797 109.954 47.1922 107.687 47.1922 104.966C47.1922 102.246 46.2797 99.9919 44.4546 98.2035C42.6549 96.39 40.4243 95.4833 37.7628 95.4833C35.1013 95.4833 32.858 96.39 31.033 98.2035C29.2333 99.9919 28.3334 102.246 28.3334 104.966C28.3334 107.661 29.2333 109.928 31.033 111.767Z" fill="#1E2939"/>
<path d="M0 91.743H19.5812V118.19H15.2087V95.8989H4.37249V118.19H0V91.743Z" fill="#1E2939"/>
<path d="M310.27 124.389H298.919V119.477H310.27V124.389ZM315 153.065H308.946V138.708L298.73 153.065H294.189V126.618H300.243V140.975L310.46 126.618H315V153.065Z" fill="#1E2939"/>
<path d="M272.068 153.065H262.041V126.618H268.095V134.93H272.068C274.691 134.93 276.886 135.811 278.652 137.574C280.443 139.363 281.338 141.504 281.338 143.997C281.338 146.491 280.443 148.632 278.652 150.42C276.886 152.183 274.691 153.065 272.068 153.065ZM289.662 153.065H283.608V126.618H289.662V153.065ZM268.095 140.597V147.398H272.068C273.001 147.398 273.771 147.07 274.376 146.415C274.981 145.76 275.284 144.954 275.284 143.997C275.284 143.04 274.981 142.234 274.376 141.579C273.771 140.924 273.001 140.597 272.068 140.597H268.095Z" fill="#1E2939"/>
<path d="M251.439 136.743V126.618H257.493V153.065H251.439V142.562H243.115V153.065H237.061V126.618H243.115V136.743H251.439Z" fill="#1E2939"/>
<path d="M226.474 137.99V126.618H232.528V153.065H226.474V143.846C225.061 144.4 223.56 144.677 221.971 144.677C219.247 144.677 216.976 143.922 215.16 142.41C213.369 140.849 212.474 138.733 212.474 136.063V126.618H218.528V135.156C218.528 136.315 218.843 137.222 219.474 137.877C220.129 138.532 221.012 138.859 222.122 138.859C223.661 138.859 225.111 138.569 226.474 137.99Z" fill="#1E2939"/>
<path d="M205.992 149.627C203.318 152.271 200.064 153.594 196.23 153.594C192.396 153.594 189.142 152.271 186.468 149.627C183.794 146.982 182.457 143.72 182.457 139.841C182.457 135.963 183.794 132.701 186.468 130.056C189.142 127.411 192.396 126.089 196.23 126.089C200.064 126.089 203.318 127.411 205.992 130.056C208.666 132.701 210.003 135.963 210.003 139.841C210.003 143.72 208.666 146.982 205.992 149.627ZM188.511 139.841C188.511 142.159 189.243 144.048 190.706 145.509C192.169 146.97 194.01 147.7 196.23 147.7C198.424 147.7 200.253 146.97 201.716 145.509C203.205 144.023 203.949 142.134 203.949 139.841C203.949 137.549 203.205 135.66 201.716 134.174C200.253 132.713 198.424 131.983 196.23 131.983C194.01 131.983 192.169 132.713 190.706 134.174C189.243 135.635 188.511 137.524 188.511 139.841Z" fill="#1E2939"/>
<path d="M162.782 126.618H182.458V132.436H175.647V153.065H169.593V132.436H162.782V126.618Z" fill="#1E2939"/>
<path d="M157.075 149.589C154.426 152.234 151.184 153.556 147.35 153.556C143.516 153.556 140.262 152.234 137.588 149.589C134.94 146.919 133.615 143.67 133.615 139.841C133.615 136.013 134.94 132.776 137.588 130.132C140.262 127.462 143.516 126.127 147.35 126.127C151.184 126.127 154.426 127.462 157.075 130.132C159.748 132.776 161.085 136.013 161.085 139.841C161.085 143.67 159.748 146.919 157.075 149.589ZM140.653 146.642C142.494 148.43 144.727 149.325 147.35 149.325C149.999 149.325 152.219 148.43 154.01 146.642C155.826 144.829 156.734 142.562 156.734 139.841C156.734 137.121 155.826 134.867 154.01 133.079C152.219 131.265 149.999 130.358 147.35 130.358C144.702 130.358 142.469 131.265 140.653 133.079C138.862 134.867 137.967 137.121 137.967 139.841C137.967 142.536 138.862 144.803 140.653 146.642Z" fill="#1E2939"/>
<path d="M112.843 126.618H122.605C125.102 126.618 127.183 127.449 128.848 129.111C130.538 130.774 131.383 132.839 131.383 135.308C131.383 137.751 130.538 139.816 128.848 141.504C127.183 143.166 125.102 143.997 122.605 143.997H117.194V153.065H112.843V126.618ZM117.194 139.917H122.605C123.891 139.917 124.951 139.489 125.783 138.632C126.616 137.751 127.032 136.643 127.032 135.308C127.032 133.973 126.616 132.877 125.783 132.021C124.951 131.139 123.891 130.698 122.605 130.698H117.194V139.917Z" fill="#1E2939"/>
<path d="M104.863 149.589C102.214 152.234 98.9726 153.556 95.1384 153.556C91.3041 153.556 88.0501 152.234 85.3763 149.589C82.7276 146.919 81.4033 143.67 81.4033 139.841C81.4033 136.013 82.7276 132.776 85.3763 130.132C88.0501 127.462 91.3041 126.127 95.1384 126.127C98.9726 126.127 102.214 127.462 104.863 130.132C107.536 132.776 108.873 136.013 108.873 139.841C108.873 143.67 107.536 146.919 104.863 149.589ZM88.4411 146.642C90.2825 148.43 92.5149 149.325 95.1384 149.325C97.787 149.325 100.007 148.43 101.798 146.642C103.614 144.829 104.522 142.562 104.522 139.841C104.522 137.121 103.614 134.867 101.798 133.079C100.007 131.265 97.787 130.358 95.1384 130.358C92.4897 130.358 90.2573 131.265 88.4411 133.079C86.6501 134.867 85.7546 137.121 85.7546 139.841C85.7546 142.536 86.6501 144.803 88.4411 146.642Z" fill="#1E2939"/>
<path d="M75.2219 139.35C76.3822 139.955 77.2903 140.798 77.9462 141.882C78.602 142.939 78.93 144.148 78.93 145.509C78.93 147.675 78.1606 149.476 76.6219 150.911C75.0832 152.347 73.2039 153.065 70.9841 153.065H59.6328V126.618H70.1517C72.321 126.618 74.1498 127.323 75.6381 128.734C77.1516 130.144 77.9084 131.882 77.9084 133.947C77.9084 136.214 77.0129 138.015 75.2219 139.35ZM70.1517 130.698H63.9841V137.65H70.1517C71.1102 137.65 71.9174 137.323 72.5733 136.668C73.2291 135.988 73.557 135.156 73.557 134.174C73.557 133.192 73.2291 132.373 72.5733 131.718C71.9174 131.038 71.1102 130.698 70.1517 130.698ZM63.9841 148.984H70.9841C71.9931 148.984 72.8381 148.632 73.5192 147.927C74.2255 147.196 74.5786 146.315 74.5786 145.282C74.5786 144.249 74.2255 143.38 73.5192 142.675C72.8381 141.945 71.9931 141.579 70.9841 141.579H63.9841V148.984Z" fill="#1E2939"/>
<path d="M38.6137 153.065H28.8516V126.618H33.2029V135.685H38.6137C41.1109 135.685 43.192 136.529 44.8569 138.217C46.5469 139.879 47.392 141.932 47.392 144.375C47.392 146.818 46.5469 148.884 44.8569 150.571C43.192 152.234 41.1109 153.065 38.6137 153.065ZM54.3162 153.065H49.9649V126.618H54.3162V153.065ZM33.2029 139.766V148.984H38.6137C39.9001 148.984 40.9596 148.556 41.792 147.7C42.6244 146.818 43.0406 145.71 43.0406 144.375C43.0406 143.04 42.6244 141.945 41.792 141.088C40.9596 140.207 39.9001 139.766 38.6137 139.766H33.2029Z" fill="#1E2939"/>
<path d="M13.8485 153.556C9.86299 153.556 6.55851 152.246 3.93511 149.627C1.3117 146.957 0 143.695 0 139.841C0 135.963 1.3117 132.713 3.93511 130.094C6.53329 127.449 9.83777 126.127 13.8485 126.127C16.2449 126.127 18.4521 126.694 20.4701 127.827C22.5134 128.96 24.1025 130.497 25.2377 132.436L21.4539 134.628C20.7476 133.318 19.7134 132.285 18.3512 131.53C17.0143 130.749 15.5134 130.358 13.8485 130.358C11.0486 130.358 8.75309 131.252 6.96211 133.041C5.22158 134.804 4.35132 137.071 4.35132 139.841C4.35132 142.612 5.22158 144.879 6.96211 146.642C8.75309 148.43 11.0486 149.325 13.8485 149.325C15.5134 149.325 17.0269 148.947 18.3891 148.191C19.7512 147.41 20.7728 146.365 21.4539 145.055L25.2377 147.209C24.153 149.123 22.5764 150.672 20.508 151.856C18.5152 152.989 16.2954 153.556 13.8485 153.556Z" fill="#1E2939"/>
</g>
<defs>
<clipPath id="clip0_73_2176">
<rect width="315" height="221" fill="white"/>
</clipPath>
</defs>
</svg>
